<mxfile host="65bd71144e">
    <diagram id="I0PpsqFj6DjLUP-l8nmC" name="Page-1">
        <mxGraphModel dx="765" dy="1663" grid="1" gridSize="10" guides="1" tooltips="1" connect="1" arrows="1" fold="1" page="1" pageScale="1" pageWidth="850" pageHeight="1100" background="#ffffff" math="0" shadow="1">
            <root>
                <mxCell id="0"/>
                <mxCell id="1" parent="0"/>
                <UserObject label="" mermaidData="{&#xa;  &quot;data&quot;: &quot;classDiagram\n    %% Target Interface\n    class MediaPlayer {\n        &lt;&lt;interface&gt;&gt;\n        +play(String audioType, String fileName)\n    }\n\n    %% Concrete Target\n    class AudioPlayer {\n        -MediaAdapter mediaAdapter\n        +play(String audioType, String fileName)\n    }\n\n    %% Adapter\n    class MediaAdapter {\n        -AdvancedMediaPlayer advancedMusicPlayer\n        +MediaAdapter(String audioType)\n        +play(String audioType, String fileName)\n    }\n\n    %% Adaptee Interface\n    class AdvancedMediaPlayer {\n        &lt;&lt;interface&gt;&gt;\n        +playVlc(String fileName)\n        +playMp4(String fileName)\n    }\n\n    %% Concrete Adaptees\n    class VlcPlayer {\n        +playVlc(String fileName)\n        +playMp4(String fileName)\n    }\n\n    class Mp4Player {\n        +playVlc(String fileName)\n        +playMp4(String fileName)\n    }\n\n    %% Client\n    class AdapterDP {\n        +main(String[] args)\n    }\n\n    %% Relationships\n\n    MediaPlayer &lt;|.. AudioPlayer : implements\n    MediaPlayer &lt;|.. MediaAdapter : implements\n\n    AdvancedMediaPlayer &lt;|.. VlcPlayer : implements\n    AdvancedMediaPlayer &lt;|.. Mp4Player : implements\n\n    AudioPlayer --&gt; MediaAdapter : uses\n    MediaAdapter --&gt; AdvancedMediaPlayer : uses\n\n    AdapterDP --&gt; MediaPlayer : uses\n&quot;&#xa;}" id="2">
                    <mxCell style="shape=image;noLabel=1;verticalAlign=top;imageAspect=1;image=data:image/svg+xml,PHN2ZyBhcmlhLXJvbGVkZXNjcmlwdGlvbj0iY2xhc3MiIHJvbGU9ImdyYXBoaWNzLWRvY3VtZW50IGRvY3VtZW50IiB2aWV3Qm94PSIwIDAgNTk5LjYwMzE0OTQxNDA2MjUgMTI5MCIgc3R5bGU9Im1heC13aWR0aDogNTk5LjYwMzE0OTQxNDA2MjVweDsiIGNsYXNzPSJjbGFzc0RpYWdyYW0iIHhtbG5zPSJodHRwOi8vd3d3LnczLm9yZy8yMDAwL3N2ZyIgd2lkdGg9IjEwMCUiIGlkPSJnZU1lcm1haWRPdXRwdXQtMTc1MzExMTI1MDI4NSI+PHN0eWxlPiNnZU1lcm1haWRPdXRwdXQtMTc1MzExMTI1MDI4NXtmb250LWZhbWlseToidHJlYnVjaGV0IG1zIix2ZXJkYW5hLGFyaWFsLHNhbnMtc2VyaWY7Zm9udC1zaXplOjE2cHg7ZmlsbDojMDAwMDAwO30jZ2VNZXJtYWlkT3V0cHV0LTE3NTMxMTEyNTAyODUgLmVycm9yLWljb257ZmlsbDojNTUyMjIyO30jZ2VNZXJtYWlkT3V0cHV0LTE3NTMxMTEyNTAyODUgLmVycm9yLXRleHR7ZmlsbDojNTUyMjIyO3N0cm9rZTojNTUyMjIyO30jZ2VNZXJtYWlkT3V0cHV0LTE3NTMxMTEyNTAyODUgLmVkZ2UtdGhpY2tuZXNzLW5vcm1hbHtzdHJva2Utd2lkdGg6MXB4O30jZ2VNZXJtYWlkT3V0cHV0LTE3NTMxMTEyNTAyODUgLmVkZ2UtdGhpY2tuZXNzLXRoaWNre3N0cm9rZS13aWR0aDozLjVweDt9I2dlTWVybWFpZE91dHB1dC0xNzUzMTExMjUwMjg1IC5lZGdlLXBhdHRlcm4tc29saWR7c3Ryb2tlLWRhc2hhcnJheTowO30jZ2VNZXJtYWlkT3V0cHV0LTE3NTMxMTEyNTAyODUgLmVkZ2UtdGhpY2tuZXNzLWludmlzaWJsZXtzdHJva2Utd2lkdGg6MDtmaWxsOm5vbmU7fSNnZU1lcm1haWRPdXRwdXQtMTc1MzExMTI1MDI4NSAuZWRnZS1wYXR0ZXJuLWRhc2hlZHtzdHJva2UtZGFzaGFycmF5OjM7fSNnZU1lcm1haWRPdXRwdXQtMTc1MzExMTI1MDI4NSAuZWRnZS1wYXR0ZXJuLWRvdHRlZHtzdHJva2UtZGFzaGFycmF5OjI7fSNnZU1lcm1haWRPdXRwdXQtMTc1MzExMTI1MDI4NSAubWFya2Vye2ZpbGw6IzY2NjtzdHJva2U6IzY2Njt9I2dlTWVybWFpZE91dHB1dC0xNzUzMTExMjUwMjg1IC5tYXJrZXIuY3Jvc3N7c3Ryb2tlOiM2NjY7fSNnZU1lcm1haWRPdXRwdXQtMTc1MzExMTI1MDI4NSBzdmd7Zm9udC1mYW1pbHk6InRyZWJ1Y2hldCBtcyIsdmVyZGFuYSxhcmlhbCxzYW5zLXNlcmlmO2ZvbnQtc2l6ZToxNnB4O30jZ2VNZXJtYWlkT3V0cHV0LTE3NTMxMTEyNTAyODUgcHttYXJnaW46MDt9I2dlTWVybWFpZE91dHB1dC0xNzUzMTExMjUwMjg1IGcuY2xhc3NHcm91cCB0ZXh0e2ZpbGw6Izk5OTtzdHJva2U6bm9uZTtmb250LWZhbWlseToidHJlYnVjaGV0IG1zIix2ZXJkYW5hLGFyaWFsLHNhbnMtc2VyaWY7Zm9udC1zaXplOjEwcHg7fSNnZU1lcm1haWRPdXRwdXQtMTc1MzExMTI1MDI4NSBnLmNsYXNzR3JvdXAgdGV4dCAudGl0bGV7Zm9udC13ZWlnaHQ6Ym9sZGVyO30jZ2VNZXJtYWlkT3V0cHV0LTE3NTMxMTEyNTAyODUgLm5vZGVMYWJlbCwjZ2VNZXJtYWlkT3V0cHV0LTE3NTMxMTEyNTAyODUgLmVkZ2VMYWJlbHtjb2xvcjojMTExMTExO30jZ2VNZXJtYWlkT3V0cHV0LTE3NTMxMTEyNTAyODUgLmVkZ2VMYWJlbCAubGFiZWwgcmVjdHtmaWxsOiNlZWU7fSNnZU1lcm1haWRPdXRwdXQtMTc1MzExMTI1MDI4NSAubGFiZWwgdGV4dHtmaWxsOiMxMTExMTE7fSNnZU1lcm1haWRPdXRwdXQtMTc1MzExMTI1MDI4NSAubGFiZWxCa2d7YmFja2dyb3VuZDojZWVlO30jZ2VNZXJtYWlkT3V0cHV0LTE3NTMxMTEyNTAyODUgLmVkZ2VMYWJlbCAubGFiZWwgc3BhbntiYWNrZ3JvdW5kOiNlZWU7fSNnZU1lcm1haWRPdXRwdXQtMTc1MzExMTI1MDI4NSAuY2xhc3NUaXRsZXtmb250LXdlaWdodDpib2xkZXI7fSNnZU1lcm1haWRPdXRwdXQtMTc1MzExMTI1MDI4NSAubm9kZSByZWN0LCNnZU1lcm1haWRPdXRwdXQtMTc1MzExMTI1MDI4NSAubm9kZSBjaXJjbGUsI2dlTWVybWFpZE91dHB1dC0xNzUzMTExMjUwMjg1IC5ub2RlIGVsbGlwc2UsI2dlTWVybWFpZE91dHB1dC0xNzUzMTExMjUwMjg1IC5ub2RlIHBvbHlnb24sI2dlTWVybWFpZE91dHB1dC0xNzUzMTExMjUwMjg1IC5ub2RlIHBhdGh7ZmlsbDojZWVlO3N0cm9rZTojOTk5O3N0cm9rZS13aWR0aDoxcHg7fSNnZU1lcm1haWRPdXRwdXQtMTc1MzExMTI1MDI4NSAuZGl2aWRlcntzdHJva2U6Izk5OTtzdHJva2Utd2lkdGg6MTt9I2dlTWVybWFpZE91dHB1dC0xNzUzMTExMjUwMjg1IGcuY2xpY2thYmxle2N1cnNvcjpwb2ludGVyO30jZ2VNZXJtYWlkT3V0cHV0LTE3NTMxMTEyNTAyODUgZy5jbGFzc0dyb3VwIHJlY3R7ZmlsbDojZWVlO3N0cm9rZTojOTk5O30jZ2VNZXJtYWlkT3V0cHV0LTE3NTMxMTEyNTAyODUgZy5jbGFzc0dyb3VwIGxpbmV7c3Ryb2tlOiM5OTk7c3Ryb2tlLXdpZHRoOjE7fSNnZU1lcm1haWRPdXRwdXQtMTc1MzExMTI1MDI4NSAuY2xhc3NMYWJlbCAuYm94e3N0cm9rZTpub25lO3N0cm9rZS13aWR0aDowO2ZpbGw6I2VlZTtvcGFjaXR5OjAuNTt9I2dlTWVybWFpZE91dHB1dC0xNzUzMTExMjUwMjg1IC5jbGFzc0xhYmVsIC5sYWJlbHtmaWxsOiM5OTk7Zm9udC1zaXplOjEwcHg7fSNnZU1lcm1haWRPdXRwdXQtMTc1MzExMTI1MDI4NSAucmVsYXRpb257c3Ryb2tlOiM2NjY7c3Ryb2tlLXdpZHRoOjE7ZmlsbDpub25lO30jZ2VNZXJtYWlkT3V0cHV0LTE3NTMxMTEyNTAyODUgLmRhc2hlZC1saW5le3N0cm9rZS1kYXNoYXJyYXk6Mzt9I2dlTWVybWFpZE91dHB1dC0xNzUzMTExMjUwMjg1IC5kb3R0ZWQtbGluZXtzdHJva2UtZGFzaGFycmF5OjEgMjt9I2dlTWVybWFpZE91dHB1dC0xNzUzMTExMjUwMjg1ICNjb21wb3NpdGlvblN0YXJ0LCNnZU1lcm1haWRPdXRwdXQtMTc1MzExMTI1MDI4NSAuY29tcG9zaXRpb257ZmlsbDojNjY2IWltcG9ydGFudDtzdHJva2U6IzY2NiFpbXBvcnRhbnQ7c3Ryb2tlLXdpZHRoOjE7fSNnZU1lcm1haWRPdXRwdXQtMTc1MzExMTI1MDI4NSAjY29tcG9zaXRpb25FbmQsI2dlTWVybWFpZE91dHB1dC0xNzUzMTExMjUwMjg1IC5jb21wb3NpdGlvbntmaWxsOiM2NjYhaW1wb3J0YW50O3N0cm9rZTojNjY2IWltcG9ydGFudDtzdHJva2Utd2lkdGg6MTt9I2dlTWVybWFpZE91dHB1dC0xNzUzMTExMjUwMjg1ICNkZXBlbmRlbmN5U3RhcnQsI2dlTWVybWFpZE91dHB1dC0xNzUzMTExMjUwMjg1IC5kZXBlbmRlbmN5e2ZpbGw6IzY2NiFpbXBvcnRhbnQ7c3Ryb2tlOiM2NjYhaW1wb3J0YW50O3N0cm9rZS13aWR0aDoxO30jZ2VNZXJtYWlkT3V0cHV0LTE3NTMxMTEyNTAyODUgI2RlcGVuZGVuY3lTdGFydCwjZ2VNZXJtYWlkT3V0cHV0LTE3NTMxMTEyNTAyODUgLmRlcGVuZGVuY3l7ZmlsbDojNjY2IWltcG9ydGFudDtzdHJva2U6IzY2NiFpbXBvcnRhbnQ7c3Ryb2tlLXdpZHRoOjE7fSNnZU1lcm1haWRPdXRwdXQtMTc1MzExMTI1MDI4NSAjZXh0ZW5zaW9uU3RhcnQsI2dlTWVybWFpZE91dHB1dC0xNzUzMTExMjUwMjg1IC5leHRlbnNpb257ZmlsbDp0cmFuc3BhcmVudCFpbXBvcnRhbnQ7c3Ryb2tlOiM2NjYhaW1wb3J0YW50O3N0cm9rZS13aWR0aDoxO30jZ2VNZXJtYWlkT3V0cHV0LTE3NTMxMTEyNTAyODUgI2V4dGVuc2lvbkVuZCwjZ2VNZXJtYWlkT3V0cHV0LTE3NTMxMTEyNTAyODUgLmV4dGVuc2lvbntmaWxsOnRyYW5zcGFyZW50IWltcG9ydGFudDtzdHJva2U6IzY2NiFpbXBvcnRhbnQ7c3Ryb2tlLXdpZHRoOjE7fSNnZU1lcm1haWRPdXRwdXQtMTc1MzExMTI1MDI4NSAjYWdncmVnYXRpb25TdGFydCwjZ2VNZXJtYWlkT3V0cHV0LTE3NTMxMTEyNTAyODUgLmFnZ3JlZ2F0aW9ue2ZpbGw6dHJhbnNwYXJlbnQhaW1wb3J0YW50O3N0cm9rZTojNjY2IWltcG9ydGFudDtzdHJva2Utd2lkdGg6MTt9I2dlTWVybWFpZE91dHB1dC0xNzUzMTExMjUwMjg1ICNhZ2dyZWdhdGlvbkVuZCwjZ2VNZXJtYWlkT3V0cHV0LTE3NTMxMTEyNTAyODUgLmFnZ3JlZ2F0aW9ue2ZpbGw6dHJhbnNwYXJlbnQhaW1wb3J0YW50O3N0cm9rZTojNjY2IWltcG9ydGFudDtzdHJva2Utd2lkdGg6MTt9I2dlTWVybWFpZE91dHB1dC0xNzUzMTExMjUwMjg1ICNsb2xsaXBvcFN0YXJ0LCNnZU1lcm1haWRPdXRwdXQtMTc1MzExMTI1MDI4NSAubG9sbGlwb3B7ZmlsbDojZWVlIWltcG9ydGFudDtzdHJva2U6IzY2NiFpbXBvcnRhbnQ7c3Ryb2tlLXdpZHRoOjE7fSNnZU1lcm1haWRPdXRwdXQtMTc1MzExMTI1MDI4NSAjbG9sbGlwb3BFbmQsI2dlTWVybWFpZE91dHB1dC0xNzUzMTExMjUwMjg1IC5sb2xsaXBvcHtmaWxsOiNlZWUhaW1wb3J0YW50O3N0cm9rZTojNjY2IWltcG9ydGFudDtzdHJva2Utd2lkdGg6MTt9I2dlTWVybWFpZE91dHB1dC0xNzUzMTExMjUwMjg1IC5lZGdlVGVybWluYWxze2ZvbnQtc2l6ZToxMXB4O2xpbmUtaGVpZ2h0OmluaXRpYWw7fSNnZU1lcm1haWRPdXRwdXQtMTc1MzExMTI1MDI4NSAuY2xhc3NUaXRsZVRleHR7dGV4dC1hbmNob3I6bWlkZGxlO2ZvbnQtc2l6ZToxOHB4O2ZpbGw6IzAwMDAwMDt9I2dlTWVybWFpZE91dHB1dC0xNzUzMTExMjUwMjg1IDpyb290ey0tbWVybWFpZC1mb250LWZhbWlseToidHJlYnVjaGV0IG1zIix2ZXJkYW5hLGFyaWFsLHNhbnMtc2VyaWY7fTwvc3R5bGU+PGc+PGRlZnM+PG1hcmtlciBvcmllbnQ9ImF1dG8iIG1hcmtlckhlaWdodD0iMjQwIiBtYXJrZXJXaWR0aD0iMTkwIiByZWZZPSI3IiByZWZYPSIxOCIgY2xhc3M9Im1hcmtlciBhZ2dyZWdhdGlvbiBjbGFzcyIgaWQ9ImdlTWVybWFpZE91dHB1dC0xNzUzMTExMjUwMjg1X2NsYXNzLWFnZ3JlZ2F0aW9uU3RhcnQiPjxwYXRoIGQ9Ik0gMTgsNyBMOSwxMyBMMSw3IEw5LDEgWiI+PC9wYXRoPjwvbWFya2VyPjwvZGVmcz48ZGVmcz48bWFya2VyIG9yaWVudD0iYXV0byIgbWFya2VySGVpZ2h0PSIyOCIgbWFya2VyV2lkdGg9IjIwIiByZWZZPSI3IiByZWZYPSIxIiBjbGFzcz0ibWFya2VyIGFnZ3JlZ2F0aW9uIGNsYXNzIiBpZD0iZ2VNZXJtYWlkT3V0cHV0LTE3NTMxMTEyNTAyODVfY2xhc3MtYWdncmVnYXRpb25FbmQiPjxwYXRoIGQ9Ik0gMTgsNyBMOSwxMyBMMSw3IEw5LDEgWiI+PC9wYXRoPjwvbWFya2VyPjwvZGVmcz48ZGVmcz48bWFya2VyIG9yaWVudD0iYXV0byIgbWFya2VySGVpZ2h0PSIyNDAiIG1hcmtlcldpZHRoPSIxOTAiIHJlZlk9IjciIHJlZlg9IjE4IiBjbGFzcz0ibWFya2VyIGV4dGVuc2lvbiBjbGFzcyIgaWQ9ImdlTWVybWFpZE91dHB1dC0xNzUzMTExMjUwMjg1X2NsYXNzLWV4dGVuc2lvblN0YXJ0Ij48cGF0aCBkPSJNIDEsNyBMMTgsMTMgViAxIFoiPjwvcGF0aD48L21hcmtlcj48L2RlZnM+PGRlZnM+PG1hcmtlciBvcmllbnQ9ImF1dG8iIG1hcmtlckhlaWdodD0iMjgiIG1hcmtlcldpZHRoPSIyMCIgcmVmWT0iNyIgcmVmWD0iMSIgY2xhc3M9Im1hcmtlciBleHRlbnNpb24gY2xhc3MiIGlkPSJnZU1lcm1haWRPdXRwdXQtMTc1MzExMTI1MDI4NV9jbGFzcy1leHRlbnNpb25FbmQiPjxwYXRoIGQ9Ik0gMSwxIFYgMTMgTDE4LDcgWiI+PC9wYXRoPjwvbWFya2VyPjwvZGVmcz48ZGVmcz48bWFya2VyIG9yaWVudD0iYXV0byIgbWFya2VySGVpZ2h0PSIyNDAiIG1hcmtlcldpZHRoPSIxOTAiIHJlZlk9IjciIHJlZlg9IjE4IiBjbGFzcz0ibWFya2VyIGNvbXBvc2l0aW9uIGNsYXNzIiBpZD0iZ2VNZXJtYWlkT3V0cHV0LTE3NTMxMTEyNTAyODVfY2xhc3MtY29tcG9zaXRpb25TdGFydCI+PHBhdGggZD0iTSAxOCw3IEw5LDEzIEwxLDcgTDksMSBaIj48L3BhdGg+PC9tYXJrZXI+PC9kZWZzPjxkZWZzPjxtYXJrZXIgb3JpZW50PSJhdXRvIiBtYXJrZXJIZWlnaHQ9IjI4IiBtYXJrZXJXaWR0aD0iMjAiIHJlZlk9IjciIHJlZlg9IjEiIGNsYXNzPSJtYXJrZXIgY29tcG9zaXRpb24gY2xhc3MiIGlkPSJnZU1lcm1haWRPdXRwdXQtMTc1MzExMTI1MDI4NV9jbGFzcy1jb21wb3NpdGlvbkVuZCI+PHBhdGggZD0iTSAxOCw3IEw5LDEzIEwxLDcgTDksMSBaIj48L3BhdGg+PC9tYXJrZXI+PC9kZWZzPjxkZWZzPjxtYXJrZXIgb3JpZW50PSJhdXRvIiBtYXJrZXJIZWlnaHQ9IjI0MCIgbWFya2VyV2lkdGg9IjE5MCIgcmVmWT0iNyIgcmVmWD0iNiIgY2xhc3M9Im1hcmtlciBkZXBlbmRlbmN5IGNsYXNzIiBpZD0iZ2VNZXJtYWlkT3V0cHV0LTE3NTMxMTEyNTAyODVfY2xhc3MtZGVwZW5kZW5jeVN0YXJ0Ij48cGF0aCBkPSJNIDUsNyBMOSwxMyBMMSw3IEw5LDEgWiI+PC9wYXRoPjwvbWFya2VyPjwvZGVmcz48ZGVmcz48bWFya2VyIG9yaWVudD0iYXV0byIgbWFya2VySGVpZ2h0PSIyOCIgbWFya2VyV2lkdGg9IjIwIiByZWZZPSI3IiByZWZYPSIxMyIgY2xhc3M9Im1hcmtlciBkZXBlbmRlbmN5IGNsYXNzIiBpZD0iZ2VNZXJtYWlkT3V0cHV0LTE3NTMxMTEyNTAyODVfY2xhc3MtZGVwZW5kZW5jeUVuZCI+PHBhdGggZD0iTSAxOCw3IEw5LDEzIEwxNCw3IEw5LDEgWiI+PC9wYXRoPjwvbWFya2VyPjwvZGVmcz48ZGVmcz48bWFya2VyIG9yaWVudD0iYXV0byIgbWFya2VySGVpZ2h0PSIyNDAiIG1hcmtlcldpZHRoPSIxOTAiIHJlZlk9IjciIHJlZlg9IjEzIiBjbGFzcz0ibWFya2VyIGxvbGxpcG9wIGNsYXNzIiBpZD0iZ2VNZXJtYWlkT3V0cHV0LTE3NTMxMTEyNTAyODVfY2xhc3MtbG9sbGlwb3BTdGFydCI+PGNpcmNsZSByPSI2IiBjeT0iNyIgY3g9IjciIGZpbGw9InRyYW5zcGFyZW50IiBzdHJva2U9ImJsYWNrIj48L2NpcmNsZT48L21hcmtlcj48L2RlZnM+PGRlZnM+PG1hcmtlciBvcmllbnQ9ImF1dG8iIG1hcmtlckhlaWdodD0iMjQwIiBtYXJrZXJXaWR0aD0iMTkwIiByZWZZPSI3IiByZWZYPSIxIiBjbGFzcz0ibWFya2VyIGxvbGxpcG9wIGNsYXNzIiBpZD0iZ2VNZXJtYWlkT3V0cHV0LTE3NTMxMTEyNTAyODVfY2xhc3MtbG9sbGlwb3BFbmQiPjxjaXJjbGUgcj0iNiIgY3k9IjciIGN4PSI3IiBmaWxsPSJ0cmFuc3BhcmVudCIgc3Ryb2tlPSJibGFjayI+PC9jaXJjbGU+PC9tYXJrZXI+PC9kZWZzPjxnIGNsYXNzPSJyb290Ij48ZyBjbGFzcz0iY2x1c3RlcnMiPjwvZz48ZyBjbGFzcz0iZWRnZVBhdGhzIj48cGF0aCBtYXJrZXItc3RhcnQ9InVybCgjZ2VNZXJtYWlkT3V0cHV0LTE3NTMxMTEyNTAyODVfY2xhc3MtZXh0ZW5zaW9uU3RhcnQpIiBzdHlsZT0iOyIgY2xhc3M9ImVkZ2UtdGhpY2tuZXNzLW5vcm1hbCBlZGdlLXBhdHRlcm4tZGFzaGVkIHJlbGF0aW9uIiBpZD0iaWRfTWVkaWFQbGF5ZXJfQXVkaW9QbGF5ZXJfMSIgZD0iTTM4My41MiwzNjguMTM5TDM4OC4yNiwzNzIuMjE1QzM5Mi45OTksMzc2LjI5Miw0MDIuNDc4LDM4NC40NDYsNDA3LjIxNywzOTQuNTU2QzQxMS45NTYsNDA0LjY2Nyw0MTEuOTU2LDQxNi43MzMsNDExLjk1Niw0MjIuNzY3TDQxMS45NTYsNDI4LjgiPjwvcGF0aD48cGF0aCBtYXJrZXItc3RhcnQ9InVybCgjZ2VNZXJtYWlkT3V0cHV0LTE3NTMxMTEyNTAyODVfY2xhc3MtZXh0ZW5zaW9uU3RhcnQpIiBzdHlsZT0iOyIgY2xhc3M9ImVkZ2UtdGhpY2tuZXNzLW5vcm1hbCBlZGdlLXBhdHRlcm4tZGFzaGVkIHJlbGF0aW9uIiBpZD0iaWRfTWVkaWFQbGF5ZXJfTWVkaWFBZGFwdGVyXzIiIGQ9Ik0xODEuODU4LDM2OC4xMzlMMTc3LjExOCwzNzIuMjE1QzE3Mi4zNzksMzc2LjI5MiwxNjIuOSwzODQuNDQ2LDE1OC4xNjEsNDA2LjU1NkMxNTMuNDIyLDQyOC42NjcsMTUzLjQyMiw0NjQuNzMzLDE1My40MjIsNTAwLjhDMTUzLjQyMiw1MzYuODY3LDE1My40MjIsNTcyLjkzMywxNTkuOTEsNTk3QzE2Ni4zOTksNjIxLjA2NywxNzkuMzc2LDYzMy4xMzMsMTg1Ljg2NCw2MzkuMTY3TDE5Mi4zNTMsNjQ1LjIiPjwvcGF0aD48cGF0aCBtYXJrZXItc3RhcnQ9InVybCgjZ2VNZXJtYWlkT3V0cHV0LTE3NTMxMTEyNTAyODVfY2xhc3MtZXh0ZW5zaW9uU3RhcnQpIiBzdHlsZT0iOyIgY2xhc3M9ImVkZ2UtdGhpY2tuZXNzLW5vcm1hbCBlZGdlLXBhdHRlcm4tZGFzaGVkIHJlbGF0aW9uIiBpZD0iaWRfQWR2YW5jZWRNZWRpYVBsYXllcl9WbGNQbGF5ZXJfMyIgZD0iTTE2Mi42MDksMTA3MS4wMUwxNTcuNTY3LDEwNzUuMTQxQzE1Mi41MjYsMTA3OS4yNzMsMTQyLjQ0MywxMDg3LjUzNywxMzcuNDAxLDEwOTcuNzAyQzEzMi4zNTksMTEwNy44NjcsMTMyLjM1OSwxMTE5LjkzMywxMzIuMzU5LDExMjUuOTY3TDEzMi4zNTksMTEzMiI+PC9wYXRoPjxwYXRoIG1hcmtlci1zdGFydD0idXJsKCNnZU1lcm1haWRPdXRwdXQtMTc1MzExMTI1MDI4NV9jbGFzcy1leHRlbnNpb25TdGFydCkiIHN0eWxlPSI7IiBjbGFzcz0iZWRnZS10aGlja25lc3Mtbm9ybWFsIGVkZ2UtcGF0dGVybi1kYXNoZWQgcmVsYXRpb24iIGlkPSJpZF9BZHZhbmNlZE1lZGlhUGxheWVyX01wNFBsYXllcl80IiBkPSJNNDAyLjc2OSwxMDcxLjAxTDQwNy44MTEsMTA3NS4xNDFDNDEyLjg1MiwxMDc5LjI3Myw0MjIuOTM2LDEwODcuNTM3LDQyNy45NzcsMTA5Ny43MDJDNDMzLjAxOSwxMTA3Ljg2Nyw0MzMuMDE5LDExMTkuOTMzLDQzMy4wMTksMTEyNS45NjdMNDMzLjAxOSwxMTMyIj48L3BhdGg+PHBhdGggbWFya2VyLWVuZD0idXJsKCNnZU1lcm1haWRPdXRwdXQtMTc1MzExMTI1MDI4NV9jbGFzcy1kZXBlbmRlbmN5RW5kKSIgc3R5bGU9IjsiIGNsYXNzPSJlZGdlLXRoaWNrbmVzcy1ub3JtYWwgZWRnZS1wYXR0ZXJuLXNvbGlkIHJlbGF0aW9uIiBpZD0iaWRfQXVkaW9QbGF5ZXJfTWVkaWFBZGFwdGVyXzUiIGQ9Ik00MTEuOTU2LDU3Mi44TDQxMS45NTYsNTc4LjgzM0M0MTEuOTU2LDU4NC44NjcsNDExLjk1Niw1OTYuOTMzLDQwNi4yLDYwOC4zMTlDNDAwLjQ0NCw2MTkuNzA1LDM4OC45MzIsNjMwLjQxLDM4My4xNzYsNjM1Ljc2MkwzNzcuNDE5LDY0MS4xMTQiPjwvcGF0aD48cGF0aCBtYXJrZXItZW5kPSJ1cmwoI2dlTWVybWFpZE91dHB1dC0xNzUzMTExMjUwMjg1X2NsYXNzLWRlcGVuZGVuY3lFbmQpIiBzdHlsZT0iOyIgY2xhc3M9ImVkZ2UtdGhpY2tuZXNzLW5vcm1hbCBlZGdlLXBhdHRlcm4tc29saWQgcmVsYXRpb24iIGlkPSJpZF9NZWRpYUFkYXB0ZXJfQWR2YW5jZWRNZWRpYVBsYXllcl82IiBkPSJNMjgyLjY4OSw4MTMuMkwyODIuNjg5LDgxOS4yMzNDMjgyLjY4OSw4MjUuMjY3LDI4Mi42ODksODM3LjMzMywyODIuNjg5LDg0OC40QzI4Mi42ODksODU5LjQ2NywyODIuNjg5LDg2OS41MzMsMjgyLjY4OSw4NzQuNTY3TDI4Mi42ODksODc5LjYiPjwvcGF0aD48cGF0aCBtYXJrZXItZW5kPSJ1cmwoI2dlTWVybWFpZE91dHB1dC0xNzUzMTExMjUwMjg1X2NsYXNzLWRlcGVuZGVuY3lFbmQpIiBzdHlsZT0iOyIgY2xhc3M9ImVkZ2UtdGhpY2tuZXNzLW5vcm1hbCBlZGdlLXBhdHRlcm4tc29saWQgcmVsYXRpb24iIGlkPSJpZF9BZGFwdGVyRFBfTWVkaWFQbGF5ZXJfNyIgZD0iTTI4Mi42ODksMTM0TDI4Mi42ODksMTQwLjAzM0MyODIuNjg5LDE0Ni4wNjcsMjgyLjY4OSwxNTguMTMzLDI4Mi42ODksMTY5LjJDMjgyLjY4OSwxODAuMjY3LDI4Mi42ODksMTkwLjMzMywyODIuNjg5LDE5NS4zNjdMMjgyLjY4OSwyMDAuNCI+PC9wYXRoPjwvZz48ZyBjbGFzcz0iZWRnZUxhYmVscyI+PGcgdHJhbnNmb3JtPSJ0cmFuc2xhdGUoNDExLjk1NjI0NzMyOTcxMTksIDM5Mi41OTk5OTk0Mjc3OTU0KSIgY2xhc3M9ImVkZ2VMYWJlbCI+PGcgdHJhbnNmb3JtPSJ0cmFuc2xhdGUoLTQzLjg4NzUwMDc2MjkzOTQ1LCAtMTEuMTk5OTk5ODA5MjY1MTM3KSIgY2xhc3M9ImxhYmVsIj48Zz48cmVjdCBoZWlnaHQ9IjIyLjM5OTk5OTYxODUzMDI3MyIgd2lkdGg9Ijg3Ljc3NTAwMTUyNTg3ODkiIHk9Ii0xLjE5OTk5OTk4ODA3OTA3MSIgeD0iLTIiIHN0eWxlPSI7ZGlzcGxheTogaW5saW5lLWJsb2NrIiBjbGFzcz0iYmFja2dyb3VuZCI+PC9yZWN0Pjx0ZXh0IHN0eWxlPSI7ZGlzcGxheTogaW5saW5lLWJsb2NrIiB5PSItMTAuMSI+PHRzcGFuIGR5PSIxLjFlbSIgeT0iLTAuMWVtIiB4PSIwIiBjbGFzcz0idGV4dC1vdXRlci10c3BhbiI+PHRzcGFuIGZvbnQtd2VpZ2h0PSJub3JtYWwiIGNsYXNzPSJ0ZXh0LWlubmVyLXRzcGFuIiBmb250LXN0eWxlPSJub3JtYWwiPmltcGxlbWVudHM8L3RzcGFuPjwvdHNwYW4+PC90ZXh0PjwvZz48L2c+PC9nPjxnIHRyYW5zZm9ybT0idHJhbnNsYXRlKDE1My40MjE4ODA3MjIwNDU5LCA1MDAuNzk5OTk5MjM3MDYwNTUpIiBjbGFzcz0iZWRnZUxhYmVsIj48ZyB0cmFuc2Zvcm09InRyYW5zbGF0ZSgtNDMuODg3NTAwNzYyOTM5NDUsIC0xMS4xOTk5OTk4MDkyNjUxMzcpIiBjbGFzcz0ibGFiZWwiPjxnPjxyZWN0IGhlaWdodD0iMjIuMzk5OTk5NjE4NTMwMjczIiB3aWR0aD0iODcuNzc1MDAxNTI1ODc4OSIgeT0iLTEuMTk5OTk5OTg4MDc5MDcxIiB4PSItMiIgc3R5bGU9IjtkaXNwbGF5OiBpbmxpbmUtYmxvY2siIGNsYXNzPSJiYWNrZ3JvdW5kIj48L3JlY3Q+PHRleHQgc3R5bGU9IjtkaXNwbGF5OiBpbmxpbmUtYmxvY2siIHk9Ii0xMC4xIj48dHNwYW4gZHk9IjEuMWVtIiB5PSItMC4xZW0iIHg9IjAiIGNsYXNzPSJ0ZXh0LW91dGVyLXRzcGFuIj48dHNwYW4gZm9udC13ZWlnaHQ9Im5vcm1hbCIgY2xhc3M9InRleHQtaW5uZXItdHNwYW4iIGZvbnQtc3R5bGU9Im5vcm1hbCI+aW1wbGVtZW50czwvdHNwYW4+PC90c3Bhbj48L3RleHQ+PC9nPjwvZz48L2c+PGcgdHJhbnNmb3JtPSJ0cmFuc2xhdGUoMTMyLjM1OTM3NSwgMTA5NS43OTk5OTgyODMzODYyKSIgY2xhc3M9ImVkZ2VMYWJlbCI+PGcgdHJhbnNmb3JtPSJ0cmFuc2xhdGUoLTQzLjg4NzUwMDc2MjkzOTQ1LCAtMTEuMTk5OTk5ODA5MjY1MTM3KSIgY2xhc3M9ImxhYmVsIj48Zz48cmVjdCBoZWlnaHQ9IjIyLjM5OTk5OTYxODUzMDI3MyIgd2lkdGg9Ijg3Ljc3NTAwMTUyNTg3ODkiIHk9Ii0xLjE5OTk5OTk4ODA3OTA3MSIgeD0iLTIiIHN0eWxlPSI7ZGlzcGxheTogaW5saW5lLWJsb2NrIiBjbGFzcz0iYmFja2dyb3VuZCI+PC9yZWN0Pjx0ZXh0IHN0eWxlPSI7ZGlzcGxheTogaW5saW5lLWJsb2NrIiB5PSItMTAuMSI+PHRzcGFuIGR5PSIxLjFlbSIgeT0iLTAuMWVtIiB4PSIwIiBjbGFzcz0idGV4dC1vdXRlci10c3BhbiI+PHRzcGFuIGZvbnQtd2VpZ2h0PSJub3JtYWwiIGNsYXNzPSJ0ZXh0LWlubmVyLXRzcGFuIiBmb250LXN0eWxlPSJub3JtYWwiPmltcGxlbWVudHM8L3RzcGFuPjwvdHNwYW4+PC90ZXh0PjwvZz48L2c+PC9nPjxnIHRyYW5zZm9ybT0idHJhbnNsYXRlKDQzMy4wMTg3NTMwNTE3NTc4LCAxMDk1Ljc5OTk5ODI4MzM4NjIpIiBjbGFzcz0iZWRnZUxhYmVsIj48ZyB0cmFuc2Zvcm09InRyYW5zbGF0ZSgtNDMuODg3NTAwNzYyOTM5NDUsIC0xMS4xOTk5OTk4MDkyNjUxMzcpIiBjbGFzcz0ibGFiZWwiPjxnPjxyZWN0IGhlaWdodD0iMjIuMzk5OTk5NjE4NTMwMjczIiB3aWR0aD0iODcuNzc1MDAxNTI1ODc4OSIgeT0iLTEuMTk5OTk5OTg4MDc5MDcxIiB4PSItMiIgc3R5bGU9IjtkaXNwbGF5OiBpbmxpbmUtYmxvY2siIGNsYXNzPSJiYWNrZ3JvdW5kIj48L3JlY3Q+PHRleHQgc3R5bGU9IjtkaXNwbGF5OiBpbmxpbmUtYmxvY2siIHk9Ii0xMC4xIj48dHNwYW4gZHk9IjEuMWVtIiB5PSItMC4xZW0iIHg9IjAiIGNsYXNzPSJ0ZXh0LW91dGVyLXRzcGFuIj48dHNwYW4gZm9udC13ZWlnaHQ9Im5vcm1hbCIgY2xhc3M9InRleHQtaW5uZXItdHNwYW4iIGZvbnQtc3R5bGU9Im5vcm1hbCI+aW1wbGVtZW50czwvdHNwYW4+PC90c3Bhbj48L3RleHQ+PC9nPjwvZz48L2c+PGcgdHJhbnNmb3JtPSJ0cmFuc2xhdGUoNDExLjk1NjI0NzMyOTcxMTksIDYwOC45OTk5OTkwNDYzMjU3KSIgY2xhc3M9ImVkZ2VMYWJlbCI+PGcgdHJhbnNmb3JtPSJ0cmFuc2xhdGUoLTE3LjIxMjQ5OTYxODUzMDI3MywgLTExLjE5OTk5OTgwOTI2NTEzNykiIGNsYXNzPSJsYWJlbCI+PGc+PHJlY3QgaGVpZ2h0PSIyMi4zOTk5OTk2MTg1MzAyNzMiIHdpZHRoPSIzNC40MjUwMDExNDQ0MDkxOCIgeT0iLTEuMTk5OTk5OTg4MDc5MDcxIiB4PSItMiIgc3R5bGU9IjtkaXNwbGF5OiBpbmxpbmUtYmxvY2siIGNsYXNzPSJiYWNrZ3JvdW5kIj48L3JlY3Q+PHRleHQgc3R5bGU9IjtkaXNwbGF5OiBpbmxpbmUtYmxvY2siIHk9Ii0xMC4xIj48dHNwYW4gZHk9IjEuMWVtIiB5PSItMC4xZW0iIHg9IjAiIGNsYXNzPSJ0ZXh0LW91dGVyLXRzcGFuIj48dHNwYW4gZm9udC13ZWlnaHQ9Im5vcm1hbCIgY2xhc3M9InRleHQtaW5uZXItdHNwYW4iIGZvbnQtc3R5bGU9Im5vcm1hbCI+dXNlczwvdHNwYW4+PC90c3Bhbj48L3RleHQ+PC9nPjwvZz48L2c+PGcgdHJhbnNmb3JtPSJ0cmFuc2xhdGUoMjgyLjY4OTA2NDAyNTg3ODksIDg0OS4zOTk5OTg2NjQ4NTYpIiBjbGFzcz0iZWRnZUxhYmVsIj48ZyB0cmFuc2Zvcm09InRyYW5zbGF0ZSgtMTcuMjEyNDk5NjE4NTMwMjczLCAtMTEuMTk5OTk5ODA5MjY1MTM3KSIgY2xhc3M9ImxhYmVsIj48Zz48cmVjdCBoZWlnaHQ9IjIyLjM5OTk5OTYxODUzMDI3MyIgd2lkdGg9IjM0LjQyNTAwMTE0NDQwOTE4IiB5PSItMS4xOTk5OTk5ODgwNzkwNzEiIHg9Ii0yIiBzdHlsZT0iO2Rpc3BsYXk6IGlubGluZS1ibG9jayIgY2xhc3M9ImJhY2tncm91bmQiPjwvcmVjdD48dGV4dCBzdHlsZT0iO2Rpc3BsYXk6IGlubGluZS1ibG9jayIgeT0iLTEwLjEiPjx0c3BhbiBkeT0iMS4xZW0iIHk9Ii0wLjFlbSIgeD0iMCIgY2xhc3M9InRleHQtb3V0ZXItdHNwYW4iPjx0c3BhbiBmb250LXdlaWdodD0ibm9ybWFsIiBjbGFzcz0idGV4dC1pbm5lci10c3BhbiIgZm9udC1zdHlsZT0ibm9ybWFsIj51c2VzPC90c3Bhbj48L3RzcGFuPjwvdGV4dD48L2c+PC9nPjwvZz48ZyB0cmFuc2Zvcm09InRyYW5zbGF0ZSgyODIuNjg5MDY0MDI1ODc4OSwgMTcwLjE5OTk5OTgwOTI2NTE0KSIgY2xhc3M9ImVkZ2VMYWJlbCI+PGcgdHJhbnNmb3JtPSJ0cmFuc2xhdGUoLTE3LjIxMjQ5OTYxODUzMDI3MywgLTExLjE5OTk5OTgwOTI2NTEzNykiIGNsYXNzPSJsYWJlbCI+PGc+PHJlY3QgaGVpZ2h0PSIyMi4zOTk5OTk2MTg1MzAyNzMiIHdpZHRoPSIzNC40MjUwMDExNDQ0MDkxOCIgeT0iLTEuMTk5OTk5OTg4MDc5MDcxIiB4PSItMiIgc3R5bGU9IjtkaXNwbGF5OiBpbmxpbmUtYmxvY2siIGNsYXNzPSJiYWNrZ3JvdW5kIj48L3JlY3Q+PHRleHQgc3R5bGU9IjtkaXNwbGF5OiBpbmxpbmUtYmxvY2siIHk9Ii0xMC4xIj48dHNwYW4gZHk9IjEuMWVtIiB5PSItMC4xZW0iIHg9IjAiIGNsYXNzPSJ0ZXh0LW91dGVyLXRzcGFuIj48dHNwYW4gZm9udC13ZWlnaHQ9Im5vcm1hbCIgY2xhc3M9InRleHQtaW5uZXItdHNwYW4iIGZvbnQtc3R5bGU9Im5vcm1hbCI+dXNlczwvdHNwYW4+PC90c3Bhbj48L3RleHQ+PC9nPjwvZz48L2c+PC9nPjxnIGNsYXNzPSJub2RlcyI+PGcgdHJhbnNmb3JtPSJ0cmFuc2xhdGUoMjgyLjY4OTA2NDAyNTg3ODksIDI4MS4zOTk5OTk2MTg1MzAzKSIgaWQ9ImNsYXNzSWQtTWVkaWFQbGF5ZXItMCIgY2xhc3M9Im5vZGUgZGVmYXVsdCI+PGcgY2xhc3M9ImJhc2ljIGxhYmVsLWNvbnRhaW5lciI+PHBhdGggc3R5bGU9IiIgZmlsbD0iI2VlZSIgc3Ryb2tlLXdpZHRoPSIwIiBzdHJva2U9Im5vbmUiIGQ9Ik0tMTc5Ljg5Njg2NTg0NDcyNjU2IC03NSBMMTc5Ljg5Njg2NTg0NDcyNjU2IC03NSBMMTc5Ljg5Njg2NTg0NDcyNjU2IDc1IEwtMTc5Ljg5Njg2NTg0NDcyNjU2IDc1Ij48L3BhdGg+PHBhdGggc3R5bGU9IiIgZmlsbD0ibm9uZSIgc3Ryb2tlLXdpZHRoPSIxLjMiIHN0cm9rZT0iIzk5OSIgZD0iTS0xNzkuODk2ODY1ODQ0NzI2NTYgLTc1IEMtNzcuMjU5NzE4NTExNjg1NzggLTc1LCAyNS4zNzc0Mjg4MjEzNTUwMSAtNzUsIDE3OS44OTY4NjU4NDQ3MjY1NiAtNzUgTS0xNzkuODk2ODY1ODQ0NzI2NTYgLTc1IEMtNjAuMjU5NjY5MDk0MDMzNyAtNzUsIDU5LjM3NzUyNzY1NjY1OTE3IC03NSwgMTc5Ljg5Njg2NTg0NDcyNjU2IC03NSBNMTc5Ljg5Njg2NTg0NDcyNjU2IC03NSBDMTc5Ljg5Njg2NTg0NDcyNjU2IC0zNi45NDYyODkzNjIyMTYwNiwgMTc5Ljg5Njg2NTg0NDcyNjU2IDEuMTA3NDIxMjc1NTY3ODczLCAxNzkuODk2ODY1ODQ0NzI2NTYgNzUgTTE3OS44OTY4NjU4NDQ3MjY1NiAtNzUgQzE3OS44OTY4NjU4NDQ3MjY1NiAtMzUuODI3Mjc4MjgzNDI0MDUsIDE3OS44OTY4NjU4NDQ3MjY1NiAzLjM0NTQ0MzQzMzE1MTg5OTYsIDE3OS44OTY4NjU4NDQ3MjY1NiA3NSBNMTc5Ljg5Njg2NTg0NDcyNjU2IDc1IEM2OC4wNzY2MTQ5MzYyNjMwMyA3NSwgLTQzLjc0MzYzNTk3MjIwMDUxIDc1LCAtMTc5Ljg5Njg2NTg0NDcyNjU2IDc1IE0xNzkuODk2ODY1ODQ0NzI2NTYgNzUgQzczLjc3OTg1NDQyOTg4ODI5IDc1LCAtMzIuMzM3MTU2OTg0OTQ5OTg1IDc1LCAtMTc5Ljg5Njg2NTg0NDcyNjU2IDc1IE0tMTc5Ljg5Njg2NTg0NDcyNjU2IDc1IEMtMTc5Ljg5Njg2NTg0NDcyNjU2IDQxLjMyNzc3NzgyMzE2MDE5LCAtMTc5Ljg5Njg2NTg0NDcyNjU2IDcuNjU1NTU1NjQ2MzIwMzgsIC0xNzkuODk2ODY1ODQ0NzI2NTYgLTc1IE0tMTc5Ljg5Njg2NTg0NDcyNjU2IDc1IEMtMTc5Ljg5Njg2NTg0NDcyNjU2IDIwLjkzODc4NzIzNzE5NDkzNywgLTE3OS44OTY4NjU4NDQ3MjY1NiAtMzMuMTIyNDI1NTI1NjEwMTI2LCAtMTc5Ljg5Njg2NTg0NDcyNjU2IC03NSI+PC9wYXRoPjwvZz48ZyB0cmFuc2Zvcm09InRyYW5zbGF0ZSgtNDEuMTc0OTk5MjM3MDYwNTUsIC01MSkiIGNsYXNzPSJhbm5vdGF0aW9uLWdyb3VwIHRleHQiPjxnIHRyYW5zZm9ybT0idHJhbnNsYXRlKDAsLTEyKSIgc3R5bGU9IiIgY2xhc3M9ImxhYmVsIj48Zm9yZWlnbk9iamVjdCBoZWlnaHQ9IjI0IiB3aWR0aD0iODIuMzQ5OTk4NDc0MTIxMSI+PGRpdiBzdHlsZT0iZGlzcGxheTogdGFibGUtY2VsbDsgd2hpdGUtc3BhY2U6IG5vd3JhcDsgbGluZS1oZWlnaHQ6IDEuNTsgbWF4LXdpZHRoOiAxMjdweDsgdGV4dC1hbGlnbjogY2VudGVyOyIgeG1sbnM9Imh0dHA6Ly93d3cudzMub3JnLzE5OTkveGh0bWwiPjxzcGFuIHN0eWxlPSIiIGNsYXNzPSJub2RlTGFiZWwgbWFya2Rvd24tbm9kZS1sYWJlbCI+PHA+wqtpbnRlcmZhY2XCuzwvcD48L3NwYW4+PC9kaXY+PC9mb3JlaWduT2JqZWN0PjwvZz48L2c+PGcgdHJhbnNmb3JtPSJ0cmFuc2xhdGUoLTQ1LjQ1NjI0OTIzNzA2MDU1LCAtMjcpIiBjbGFzcz0ibGFiZWwtZ3JvdXAgdGV4dCI+PGcgdHJhbnNmb3JtPSJ0cmFuc2xhdGUoMCwtMTIpIiBzdHlsZT0iZm9udC13ZWlnaHQ6IGJvbGRlciIgY2xhc3M9ImxhYmVsIj48Zm9yZWlnbk9iamVjdCBoZWlnaHQ9IjI0IiB3aWR0aD0iOTAuOTEyNDk4NDc0MTIxMSI+PGRpdiBzdHlsZT0iZGlzcGxheTogdGFibGUtY2VsbDsgd2hpdGUtc3BhY2U6IG5vd3JhcDsgbGluZS1oZWlnaHQ6IDEuNTsgbWF4LXdpZHRoOiAxMzhweDsgdGV4dC1hbGlnbjogY2VudGVyOyIgeG1sbnM9Imh0dHA6Ly93d3cudzMub3JnLzE5OTkveGh0bWwiPjxzcGFuIHN0eWxlPSIiIGNsYXNzPSJub2RlTGFiZWwgbWFya2Rvd24tbm9kZS1sYWJlbCI+PHA+TWVkaWFQbGF5ZXI8L3A+PC9zcGFuPjwvZGl2PjwvZm9yZWlnbk9iamVjdD48L2c+PC9nPjxnIHRyYW5zZm9ybT0idHJhbnNsYXRlKC0xNjcuODk2ODY1ODQ0NzI2NTYsIDIxKSIgY2xhc3M9Im1lbWJlcnMtZ3JvdXAgdGV4dCI+PC9nPjxnIHRyYW5zZm9ybT0idHJhbnNsYXRlKC0xNjcuODk2ODY1ODQ0NzI2NTYsIDUxKSIgY2xhc3M9Im1ldGhvZHMtZ3JvdXAgdGV4dCI+PGcgdHJhbnNmb3JtPSJ0cmFuc2xhdGUoMCwtMTIpIiBzdHlsZT0iIiBjbGFzcz0ibGFiZWwiPjxmb3JlaWduT2JqZWN0IGhlaWdodD0iMjQiIHdpZHRoPSIyOTAuMzM3NDkzODk2NDg0NCI+PGRpdiBzdHlsZT0iZGlzcGxheTogdGFibGUtY2VsbDsgd2hpdGUtc3BhY2U6IG5vd3JhcDsgbGluZS1oZWlnaHQ6IDEuNTsgbWF4LXdpZHRoOiAzNDJweDsgdGV4dC1hbGlnbjogY2VudGVyOyIgeG1sbnM9Imh0dHA6Ly93d3cudzMub3JnLzE5OTkveGh0bWwiPjxzcGFuIHN0eWxlPSIiIGNsYXNzPSJub2RlTGFiZWwgbWFya2Rvd24tbm9kZS1sYWJlbCI+PHA+K3BsYXkoU3RyaW5nIGF1ZGlvVHlwZSwgU3RyaW5nIGZpbGVOYW1lKTwvcD48L3NwYW4+PC9kaXY+PC9mb3JlaWduT2JqZWN0PjwvZz48L2c+PGcgc3R5bGU9IiIgY2xhc3M9ImRpdmlkZXIiPjxwYXRoIHN0eWxlPSIiIGZpbGw9Im5vbmUiIHN0cm9rZS13aWR0aD0iMS4zIiBzdHJva2U9IiM5OTkiIGQ9Ik0tMTc5Ljg5Njg2NTg0NDcyNjU2IC0zIEMtNDAuMTYwOTE5NTY0MjQzOTI2IC0zLCA5OS41NzUwMjY3MTYyMzg3MSAtMywgMTc5Ljg5Njg2NTg0NDcyNjU2IC0zIE0tMTc5Ljg5Njg2NTg0NDcyNjU2IC0zIEMtODkuOTA0MjE5NTY0NTg3NTkgLTMsIDAuMDg4NDI2NzE1NTUxMzc4MjcgLTMsIDE3OS44OTY4NjU4NDQ3MjY1NiAtMyI+PC9wYXRoPjwvZz48ZyBzdHlsZT0iIiBjbGFzcz0iZGl2aWRlciI+PHBhdGggc3R5bGU9IiIgZmlsbD0ibm9uZSIgc3Ryb2tlLXdpZHRoPSIxLjMiIHN0cm9rZT0iIzk5OSIgZD0iTS0xNzkuODk2ODY1ODQ0NzI2NTYgMjEgQy05NC4xNTkyMTQ1MzI5Nzg3IDIxLCAtOC40MjE1NjMyMjEyMzA4MjYgMjEsIDE3OS44OTY4NjU4NDQ3MjY1NiAyMSBNLTE3OS44OTY4NjU4NDQ3MjY1NiAyMSBDLTQ1LjI0ODk4Nzk0ODI1MDAwNCAyMSwgODkuMzk4ODg5OTQ4MjI2NTUgMjEsIDE3OS44OTY4NjU4NDQ3MjY1NiAyMSI+PC9wYXRoPjwvZz48L2c+PGcgdHJhbnNmb3JtPSJ0cmFuc2xhdGUoNDExLjk1NjI0NzMyOTcxMTksIDUwMC43OTk5OTkyMzcwNjA1NSkiIGlkPSJjbGFzc0lkLUF1ZGlvUGxheWVyLTEiIGNsYXNzPSJub2RlIGRlZmF1bHQiPjxnIGNsYXNzPSJiYXNpYyBsYWJlbC1jb250YWluZXIiPjxwYXRoIHN0eWxlPSIiIGZpbGw9IiNlZWUiIHN0cm9rZS13aWR0aD0iMCIgc3Ryb2tlPSJub25lIiBkPSJNLTE3OS42NDY4NjU4NDQ3MjY1NiAtNzIgTDE3OS42NDY4NjU4NDQ3MjY1NiAtNzIgTDE3OS42NDY4NjU4NDQ3MjY1NiA3MiBMLTE3OS42NDY4NjU4NDQ3MjY1NiA3MiI+PC9wYXRoPjxwYXRoIHN0eWxlPSIiIGZpbGw9Im5vbmUiIHN0cm9rZS13aWR0aD0iMS4zIiBzdHJva2U9IiM5OTkiIGQ9Ik0tMTc5LjY0Njg2NTg0NDcyNjU2IC03MiBDLTEwNi44ODMwMjgyMDA2NzMwNCAtNzIsIC0zNC4xMTkxOTA1NTY2MTk1MTUgLTcyLCAxNzkuNjQ2ODY1ODQ0NzI2NTYgLTcyIE0tMTc5LjY0Njg2NTg0NDcyNjU2IC03MiBDLTg2LjMyNTQwMjcxMjI1NDA3IC03MiwgNi45OTYwNjA0MjAyMTg0MTMgLTcyLCAxNzkuNjQ2ODY1ODQ0NzI2NTYgLTcyIE0xNzkuNjQ2ODY1ODQ0NzI2NTYgLTcyIEMxNzkuNjQ2ODY1ODQ0NzI2NTYgLTIxLjUxNzMzMzU0MzYxOTMxLCAxNzkuNjQ2ODY1ODQ0NzI2NTYgMjguOTY1MzMyOTEyNzYxMzgzLCAxNzkuNjQ2ODY1ODQ0NzI2NTYgNzIgTTE3OS42NDY4NjU4NDQ3MjY1NiAtNzIgQzE3OS42NDY4NjU4NDQ3MjY1NiAtMjkuMjQxMzU5OTI3NTIxMDgsIDE3OS42NDY4NjU4NDQ3MjY1NiAxMy41MTcyODAxNDQ5NTc4MzcsIDE3OS42NDY4NjU4NDQ3MjY1NiA3MiBNMTc5LjY0Njg2NTg0NDcyNjU2IDcyIEM4MS45NDg2NTE0NDA3NTE2NiA3MiwgLTE1Ljc0OTU2Mjk2MzIyMzI0IDcyLCAtMTc5LjY0Njg2NTg0NDcyNjU2IDcyIE0xNzkuNjQ2ODY1ODQ0NzI2NTYgNzIgQzYyLjc0NjQ1OTA4Mjc0MTUxIDcyLCAtNTQuMTUzOTQ3Njc5MjQzNTQ0IDcyLCAtMTc5LjY0Njg2NTg0NDcyNjU2IDcyIE0tMTc5LjY0Njg2NTg0NDcyNjU2IDcyIEMtMTc5LjY0Njg2NTg0NDcyNjU2IDI2LjcwMzE5Mjk3NTcxOTYwMiwgLTE3OS42NDY4NjU4NDQ3MjY1NiAtMTguNTkzNjE0MDQ4NTYwNzk1LCAtMTc5LjY0Njg2NTg0NDcyNjU2IC03MiBNLTE3OS42NDY4NjU4NDQ3MjY1NiA3MiBDLTE3OS42NDY4NjU4NDQ3MjY1NiAzMS4yMjYzODI0NTgwNTk1OTcsIC0xNzkuNjQ2ODY1ODQ0NzI2NTYgLTkuNTQ3MjM1MDgzODgwODA3LCAtMTc5LjY0Njg2NTg0NDcyNjU2IC03MiI+PC9wYXRoPjwvZz48ZyB0cmFuc2Zvcm09InRyYW5zbGF0ZSgwLCAtNDgpIiBjbGFzcz0iYW5ub3RhdGlvbi1ncm91cCB0ZXh0Ij48L2c+PGcgdHJhbnNmb3JtPSJ0cmFuc2xhdGUoLTQ0Ljk1NjI0OTIzNzA2MDU1LCAtNDgpIiBjbGFzcz0ibGFiZWwtZ3JvdXAgdGV4dCI+PGcgdHJhbnNmb3JtPSJ0cmFuc2xhdGUoMCwtMTIpIiBzdHlsZT0iZm9udC13ZWlnaHQ6IGJvbGRlciIgY2xhc3M9ImxhYmVsIj48Zm9yZWlnbk9iamVjdCBoZWlnaHQ9IjI0IiB3aWR0aD0iODkuOTEyNDk4NDc0MTIxMSI+PGRpdiBzdHlsZT0iZGlzcGxheTogdGFibGUtY2VsbDsgd2hpdGUtc3BhY2U6IG5vd3JhcDsgbGluZS1oZWlnaHQ6IDEuNTsgbWF4LXdpZHRoOiAxMzZweDsgdGV4dC1hbGlnbjogY2VudGVyOyIgeG1sbnM9Imh0dHA6Ly93d3cudzMub3JnLzE5OTkveGh0bWwiPjxzcGFuIHN0eWxlPSIiIGNsYXNzPSJub2RlTGFiZWwgbWFya2Rvd24tbm9kZS1sYWJlbCI+PHA+QXVkaW9QbGF5ZXI8L3A+PC9zcGFuPjwvZGl2PjwvZm9yZWlnbk9iamVjdD48L2c+PC9nPjxnIHRyYW5zZm9ybT0idHJhbnNsYXRlKC0xNjcuNjQ2ODY1ODQ0NzI2NTYsIDApIiBjbGFzcz0ibWVtYmVycy1ncm91cCB0ZXh0Ij48ZyB0cmFuc2Zvcm09InRyYW5zbGF0ZSgwLC0xMikiIHN0eWxlPSIiIGNsYXNzPSJsYWJlbCI+PGZvcmVpZ25PYmplY3QgaGVpZ2h0PSIyNCIgd2lkdGg9IjIxMC40NzUwMDYxMDM1MTU2MiI+PGRpdiBzdHlsZT0iZGlzcGxheTogdGFibGUtY2VsbDsgd2hpdGUtc3BhY2U6IG5vd3JhcDsgbGluZS1oZWlnaHQ6IDEuNTsgbWF4LXdpZHRoOiAyNzBweDsgdGV4dC1hbGlnbjogY2VudGVyOyIgeG1sbnM9Imh0dHA6Ly93d3cudzMub3JnLzE5OTkveGh0bWwiPjxzcGFuIHN0eWxlPSIiIGNsYXNzPSJub2RlTGFiZWwgbWFya2Rvd24tbm9kZS1sYWJlbCI+PHA+LU1lZGlhQWRhcHRlciBtZWRpYUFkYXB0ZXI8L3A+PC9zcGFuPjwvZGl2PjwvZm9yZWlnbk9iamVjdD48L2c+PC9nPjxnIHRyYW5zZm9ybT0idHJhbnNsYXRlKC0xNjcuNjQ2ODY1ODQ0NzI2NTYsIDQ4KSIgY2xhc3M9Im1ldGhvZHMtZ3JvdXAgdGV4dCI+PGcgdHJhbnNmb3JtPSJ0cmFuc2xhdGUoMCwtMTIpIiBzdHlsZT0iIiBjbGFzcz0ibGFiZWwiPjxmb3JlaWduT2JqZWN0IGhlaWdodD0iMjQiIHdpZHRoPSIyOTAuMzM3NDkzODk2NDg0NCI+PGRpdiBzdHlsZT0iZGlzcGxheTogdGFibGUtY2VsbDsgd2hpdGUtc3BhY2U6IG5vd3JhcDsgbGluZS1oZWlnaHQ6IDEuNTsgbWF4LXdpZHRoOiAzNDJweDsgdGV4dC1hbGlnbjogY2VudGVyOyIgeG1sbnM9Imh0dHA6Ly93d3cudzMub3JnLzE5OTkveGh0bWwiPjxzcGFuIHN0eWxlPSIiIGNsYXNzPSJub2RlTGFiZWwgbWFya2Rvd24tbm9kZS1sYWJlbCI+PHA+K3BsYXkoU3RyaW5nIGF1ZGlvVHlwZSwgU3RyaW5nIGZpbGVOYW1lKTwvcD48L3NwYW4+PC9kaXY+PC9mb3JlaWduT2JqZWN0PjwvZz48L2c+PGcgc3R5bGU9IiIgY2xhc3M9ImRpdmlkZXIiPjxwYXRoIHN0eWxlPSIiIGZpbGw9Im5vbmUiIHN0cm9rZS13aWR0aD0iMS4zIiBzdHJva2U9IiM5OTkiIGQ9Ik0tMTc5LjY0Njg2NTg0NDcyNjU2IC0yNCBDLTc4LjgzNjA2Mjg5Nzc5NDUgLTI0LCAyMS45NzQ3NDAwNDkxMzc1NSAtMjQsIDE3OS42NDY4NjU4NDQ3MjY1NiAtMjQgTS0xNzkuNjQ2ODY1ODQ0NzI2NTYgLTI0IEMtNjMuMTAwODUzODEyODQwNDU1IC0yNCwgNTMuNDQ1MTU4MjE5MDQ1NjUgLTI0LCAxNzkuNjQ2ODY1ODQ0NzI2NTYgLTI0Ij48L3BhdGg+PC9nPjxnIHN0eWxlPSIiIGNsYXNzPSJkaXZpZGVyIj48cGF0aCBzdHlsZT0iIiBmaWxsPSJub25lIiBzdHJva2Utd2lkdGg9IjEuMyIgc3Ryb2tlPSIjOTk5IiBkPSJNLTE3OS42NDY4NjU4NDQ3MjY1NiAyNCBDLTkxLjY0NDMxOTM2NDE3MjkzIDI0LCAtMy42NDE3NzI4ODM2MTkyOTY0IDI0LCAxNzkuNjQ2ODY1ODQ0NzI2NTYgMjQgTS0xNzkuNjQ2ODY1ODQ0NzI2NTYgMjQgQy02MS4wNjYxOTg4MTM2NDcwNSAyNCwgNTcuNTE0NDY4MjE3NDMyNDY2IDI0LCAxNzkuNjQ2ODY1ODQ0NzI2NTYgMjQiPjwvcGF0aD48L2c+PC9nPjxnIHRyYW5zZm9ybT0idHJhbnNsYXRlKDI4Mi42ODkwNjQwMjU4Nzg5LCA3MjkuMTk5OTk4ODU1NTkwOCkiIGlkPSJjbGFzc0lkLU1lZGlhQWRhcHRlci0yIiBjbGFzcz0ibm9kZSBkZWZhdWx0Ij48ZyBjbGFzcz0iYmFzaWMgbGFiZWwtY29udGFpbmVyIj48cGF0aCBzdHlsZT0iIiBmaWxsPSIjZWVlIiBzdHJva2Utd2lkdGg9IjAiIHN0cm9rZT0ibm9uZSIgZD0iTS0xOTYuOTYyNDkzODk2NDg0MzggLTg0IEwxOTYuOTYyNDkzODk2NDg0MzggLTg0IEwxOTYuOTYyNDkzODk2NDg0MzggODQgTC0xOTYuOTYyNDkzODk2NDg0MzggODQiPjwvcGF0aD48cGF0aCBzdHlsZT0iIiBmaWxsPSJub25lIiBzdHJva2Utd2lkdGg9IjEuMyIgc3Ryb2tlPSIjOTk5IiBkPSJNLTE5Ni45NjI0OTM4OTY0ODQzOCAtODQgQy0xMTQuMzY3NzY2MjM2NzEzMDggLTg0LCAtMzEuNzczMDM4NTc2OTQxNzg2IC04NCwgMTk2Ljk2MjQ5Mzg5NjQ4NDM4IC04NCBNLTE5Ni45NjI0OTM4OTY0ODQzOCAtODQgQy01Ny43ODUyNjM1MTkyMDM1NyAtODQsIDgxLjM5MTk2Njg1ODA3NzI0IC04NCwgMTk2Ljk2MjQ5Mzg5NjQ4NDM4IC04NCBNMTk2Ljk2MjQ5Mzg5NjQ4NDM4IC04NCBDMTk2Ljk2MjQ5Mzg5NjQ4NDM4IC0zOS44ODMwNDgxOTcxODc1MzQsIDE5Ni45NjI0OTM4OTY0ODQzOCA0LjIzMzkwMzYwNTYyNDkzMSwgMTk2Ljk2MjQ5Mzg5NjQ4NDM4IDg0IE0xOTYuOTYyNDkzODk2NDg0MzggLTg0IEMxOTYuOTYyNDkzODk2NDg0MzggLTQ0Ljk5Nzc3MDc0NTkxODQyLCAxOTYuOTYyNDkzODk2NDg0MzggLTUuOTk1NTQxNDkxODM2ODQ2LCAxOTYuOTYyNDkzODk2NDg0MzggODQgTTE5Ni45NjI0OTM4OTY0ODQzOCA4NCBDODEuNjM3MzA5ODM4MjM3MTkgODQsIC0zMy42ODc4NzQyMjAwMSA4NCwgLTE5Ni45NjI0OTM4OTY0ODQzOCA4NCBNMTk2Ljk2MjQ5Mzg5NjQ4NDM4IDg0IEM2Ny42NDQ2MTIwMTYyMDcwNSA4NCwgLTYxLjY3MzI2OTg2NDA3MDI4IDg0LCAtMTk2Ljk2MjQ5Mzg5NjQ4NDM4IDg0IE0tMTk2Ljk2MjQ5Mzg5NjQ4NDM4IDg0IEMtMTk2Ljk2MjQ5Mzg5NjQ4NDM4IDE4LjEyNTgxOTQ1Njc2ODMxMiwgLTE5Ni45NjI0OTM4OTY0ODQzOCAtNDcuNzQ4MzYxMDg2NDYzMzc2LCAtMTk2Ljk2MjQ5Mzg5NjQ4NDM4IC04NCBNLTE5Ni45NjI0OTM4OTY0ODQzOCA4NCBDLTE5Ni45NjI0OTM4OTY0ODQzOCAyMi4wNjU4MTA2MjkyMDA4ODIsIC0xOTYuOTYyNDkzODk2NDg0MzggLTM5Ljg2ODM3ODc0MTU5ODIzNSwgLTE5Ni45NjI0OTM4OTY0ODQzOCAtODQiPjwvcGF0aD48L2c+PGcgdHJhbnNmb3JtPSJ0cmFuc2xhdGUoMCwgLTYwKSIgY2xhc3M9ImFubm90YXRpb24tZ3JvdXAgdGV4dCI+PC9nPjxnIHRyYW5zZm9ybT0idHJhbnNsYXRlKC01MS42NzQ5OTkyMzcwNjA1NSwgLTYwKSIgY2xhc3M9ImxhYmVsLWdyb3VwIHRleHQiPjxnIHRyYW5zZm9ybT0idHJhbnNsYXRlKDAsLTEyKSIgc3R5bGU9ImZvbnQtd2VpZ2h0OiBib2xkZXIiIGNsYXNzPSJsYWJlbCI+PGZvcmVpZ25PYmplY3QgaGVpZ2h0PSIyNCIgd2lkdGg9IjEwMy4zNDk5OTg0NzQxMjExIj48ZGl2IHN0eWxlPSJkaXNwbGF5OiB0YWJsZS1jZWxsOyB3aGl0ZS1zcGFjZTogbm93cmFwOyBsaW5lLWhlaWdodDogMS41OyBtYXgtd2lkdGg6IDE1MnB4OyB0ZXh0LWFsaWduOiBjZW50ZXI7IiB4bWxucz0iaHR0cDovL3d3dy53My5vcmcvMTk5OS94aHRtbCI+PHNwYW4gc3R5bGU9IiIgY2xhc3M9Im5vZGVMYWJlbCBtYXJrZG93bi1ub2RlLWxhYmVsIj48cD5NZWRpYUFkYXB0ZXI8L3A+PC9zcGFuPjwvZGl2PjwvZm9yZWlnbk9iamVjdD48L2c+PC9nPjxnIHRyYW5zZm9ybT0idHJhbnNsYXRlKC0xODQuOTYyNDkzODk2NDg0MzgsIC0xMikiIGNsYXNzPSJtZW1iZXJzLWdyb3VwIHRleHQiPjxnIHRyYW5zZm9ybT0idHJhbnNsYXRlKDAsLTEyKSIgc3R5bGU9IiIgY2xhc3M9ImxhYmVsIj48Zm9yZWlnbk9iamVjdCBoZWlnaHQ9IjI0IiB3aWR0aD0iMzE4LjI1Ij48ZGl2IHN0eWxlPSJkaXNwbGF5OiB0YWJsZS1jZWxsOyB3aGl0ZS1zcGFjZTogbm93cmFwOyBsaW5lLWhlaWdodDogMS41OyBtYXgtd2lkdGg6IDM3N3B4OyB0ZXh0LWFsaWduOiBjZW50ZXI7IiB4bWxucz0iaHR0cDovL3d3dy53My5vcmcvMTk5OS94aHRtbCI+PHNwYW4gc3R5bGU9IiIgY2xhc3M9Im5vZGVMYWJlbCBtYXJrZG93bi1ub2RlLWxhYmVsIj48cD4tQWR2YW5jZWRNZWRpYVBsYXllciBhZHZhbmNlZE11c2ljUGxheWVyPC9wPjwvc3Bhbj48L2Rpdj48L2ZvcmVpZ25PYmplY3Q+PC9nPjwvZz48ZyB0cmFuc2Zvcm09InRyYW5zbGF0ZSgtMTg0Ljk2MjQ5Mzg5NjQ4NDM4LCAzNikiIGNsYXNzPSJtZXRob2RzLWdyb3VwIHRleHQiPjxnIHRyYW5zZm9ybT0idHJhbnNsYXRlKDAsLTEyKSIgc3R5bGU9IiIgY2xhc3M9ImxhYmVsIj48Zm9yZWlnbk9iamVjdCBoZWlnaHQ9IjI0IiB3aWR0aD0iMjM3LjY3NTAwMzA1MTc1NzgiPjxkaXYgc3R5bGU9ImRpc3BsYXk6IHRhYmxlLWNlbGw7IHdoaXRlLXNwYWNlOiBub3dyYXA7IGxpbmUtaGVpZ2h0OiAxLjU7IG1heC13aWR0aDogMjk3cHg7IHRleHQtYWxpZ246IGNlbnRlcjsiIHhtbG5zPSJodHRwOi8vd3d3LnczLm9yZy8xOTk5L3hodG1sIj48c3BhbiBzdHlsZT0iIiBjbGFzcz0ibm9kZUxhYmVsIG1hcmtkb3duLW5vZGUtbGFiZWwiPjxwPitNZWRpYUFkYXB0ZXIoU3RyaW5nIGF1ZGlvVHlwZSk8L3A+PC9zcGFuPjwvZGl2PjwvZm9yZWlnbk9iamVjdD48L2c+PGcgdHJhbnNmb3JtPSJ0cmFuc2xhdGUoMCwxMikiIHN0eWxlPSIiIGNsYXNzPSJsYWJlbCI+PGZvcmVpZ25PYmplY3QgaGVpZ2h0PSIyNCIgd2lkdGg9IjI5MC4zMzc0OTM4OTY0ODQ0Ij48ZGl2IHN0eWxlPSJkaXNwbGF5OiB0YWJsZS1jZWxsOyB3aGl0ZS1zcGFjZTogbm93cmFwOyBsaW5lLWhlaWdodDogMS41OyBtYXgtd2lkdGg6IDM0MnB4OyB0ZXh0LWFsaWduOiBjZW50ZXI7IiB4bWxucz0iaHR0cDovL3d3dy53My5vcmcvMTk5OS94aHRtbCI+PHNwYW4gc3R5bGU9IiIgY2xhc3M9Im5vZGVMYWJlbCBtYXJrZG93bi1ub2RlLWxhYmVsIj48cD4rcGxheShTdHJpbmcgYXVkaW9UeXBlLCBTdHJpbmcgZmlsZU5hbWUpPC9wPjwvc3Bhbj48L2Rpdj48L2ZvcmVpZ25PYmplY3Q+PC9nPjwvZz48ZyBzdHlsZT0iIiBjbGFzcz0iZGl2aWRlciI+PHBhdGggc3R5bGU9IiIgZmlsbD0ibm9uZSIgc3Ryb2tlLXdpZHRoPSIxLjMiIHN0cm9rZT0iIzk5OSIgZD0iTS0xOTYuOTYyNDkzODk2NDg0MzggLTM2IEMtNzUuODkzMzgxMDM4MjgwNTggLTM2LCA0NS4xNzU3MzE4MTk5MjMyMTUgLTM2LCAxOTYuOTYyNDkzODk2NDg0MzggLTM2IE0tMTk2Ljk2MjQ5Mzg5NjQ4NDM4IC0zNiBDLTY4Ljk5OTg2MjUxMTY5MjgzIC0zNiwgNTguOTYyNzY4ODczMDk4NzI0IC0zNiwgMTk2Ljk2MjQ5Mzg5NjQ4NDM4IC0zNiI+PC9wYXRoPjwvZz48ZyBzdHlsZT0iIiBjbGFzcz0iZGl2aWRlciI+PHBhdGggc3R5bGU9IiIgZmlsbD0ibm9uZSIgc3Ryb2tlLXdpZHRoPSIxLjMiIHN0cm9rZT0iIzk5OSIgZD0iTS0xOTYuOTYyNDkzODk2NDg0MzggMTIgQy05NC44MDQxMDgyNjgwMjA3OCAxMiwgNy4zNTQyNzczNjA0NDI4MDggMTIsIDE5Ni45NjI0OTM4OTY0ODQzOCAxMiBNLTE5Ni45NjI0OTM4OTY0ODQzOCAxMiBDLTg3LjE5ODYxODQ5NDE2ODAyIDEyLCAyMi41NjUyNTY5MDgxNDgzNDIgMTIsIDE5Ni45NjI0OTM4OTY0ODQzOCAxMiI+PC9wYXRoPjwvZz48L2c+PGcgdHJhbnNmb3JtPSJ0cmFuc2xhdGUoMjgyLjY4OTA2NDAyNTg3ODksIDk3Mi41OTk5OTg0NzQxMjExKSIgaWQ9ImNsYXNzSWQtQWR2YW5jZWRNZWRpYVBsYXllci0zIiBjbGFzcz0ibm9kZSBkZWZhdWx0Ij48ZyBjbGFzcz0iYmFzaWMgbGFiZWwtY29udGFpbmVyIj48cGF0aCBzdHlsZT0iIiBmaWxsPSIjZWVlIiBzdHJva2Utd2lkdGg9IjAiIHN0cm9rZT0ibm9uZSIgZD0iTS0xNDcuNjk2ODg0MTU1MjczNDQgLTg3IEwxNDcuNjk2ODg0MTU1MjczNDQgLTg3IEwxNDcuNjk2ODg0MTU1MjczNDQgODcgTC0xNDcuNjk2ODg0MTU1MjczNDQgODciPjwvcGF0aD48cGF0aCBzdHlsZT0iIiBmaWxsPSJub25lIiBzdHJva2Utd2lkdGg9IjEuMyIgc3Ryb2tlPSIjOTk5IiBkPSJNLTE0Ny42OTY4ODQxNTUyNzM0NCAtODcgQy02NS4yMjcxODM2MzcxMzM0NSAtODcsIDE3LjI0MjUxNjg4MTAwNjUzNyAtODcsIDE0Ny42OTY4ODQxNTUyNzM0NCAtODcgTS0xNDcuNjk2ODg0MTU1MjczNDQgLTg3IEMtODMuMzQ1OTE2ODQzMjg5NTYgLTg3LCAtMTguOTk0OTQ5NTMxMzA1NjggLTg3LCAxNDcuNjk2ODg0MTU1MjczNDQgLTg3IE0xNDcuNjk2ODg0MTU1MjczNDQgLTg3IEMxNDcuNjk2ODg0MTU1MjczNDQgLTM1Ljc2NDIyOTMyMzAzNDgzLCAxNDcuNjk2ODg0MTU1MjczNDQgMTUuNDcxNTQxMzUzOTMwMzM0LCAxNDcuNjk2ODg0MTU1MjczNDQgODcgTTE0Ny42OTY4ODQxNTUyNzM0NCAtODcgQzE0Ny42OTY4ODQxNTUyNzM0NCAtMzEuNDg4NjM2NzA4ODA2MzQ3LCAxNDcuNjk2ODg0MTU1MjczNDQgMjQuMDIyNzI2NTgyMzg3MzA3LCAxNDcuNjk2ODg0MTU1MjczNDQgODcgTTE0Ny42OTY4ODQxNTUyNzM0NCA4NyBDNDguMDgwNTE1MDc5ODYzOTcgODcsIC01MS41MzU4NTM5OTU1NDU0OTQgODcsIC0xNDcuNjk2ODg0MTU1MjczNDQgODcgTTE0Ny42OTY4ODQxNTUyNzM0NCA4NyBDMzMuNzkxNTIwMTk3ODQzIDg3LCAtODAuMTEzODQzNzU5NTg3NDQgODcsIC0xNDcuNjk2ODg0MTU1MjczNDQgODcgTS0xNDcuNjk2ODg0MTU1MjczNDQgODcgQy0xNDcuNjk2ODg0MTU1MjczNDQgNDIuOTU4MDY3NzA4NDEzNTMsIC0xNDcuNjk2ODg0MTU1MjczNDQgLTEuMDgzODY0NTgzMTcyOTM5NCwgLTE0Ny42OTY4ODQxNTUyNzM0NCAtODcgTS0xNDcuNjk2ODg0MTU1MjczNDQgODcgQy0xNDcuNjk2ODg0MTU1MjczNDQgMjIuNDAyNDgzOTI2NzU0NDU2LCAtMTQ3LjY5Njg4NDE1NTI3MzQ0IC00Mi4xOTUwMzIxNDY0OTEwOSwgLTE0Ny42OTY4ODQxNTUyNzM0NCAtODciPjwvcGF0aD48L2c+PGcgdHJhbnNmb3JtPSJ0cmFuc2xhdGUoLTQxLjE3NDk5OTIzNzA2MDU1LCAtNjMpIiBjbGFzcz0iYW5ub3RhdGlvbi1ncm91cCB0ZXh0Ij48ZyB0cmFuc2Zvcm09InRyYW5zbGF0ZSgwLC0xMikiIHN0eWxlPSIiIGNsYXNzPSJsYWJlbCI+PGZvcmVpZ25PYmplY3QgaGVpZ2h0PSIyNCIgd2lkdGg9IjgyLjM0OTk5ODQ3NDEyMTEiPjxkaXYgc3R5bGU9ImRpc3BsYXk6IHRhYmxlLWNlbGw7IHdoaXRlLXNwYWNlOiBub3dyYXA7IGxpbmUtaGVpZ2h0OiAxLjU7IG1heC13aWR0aDogMTI3cHg7IHRleHQtYWxpZ246IGNlbnRlcjsiIHhtbG5zPSJodHRwOi8vd3d3LnczLm9yZy8xOTk5L3hodG1sIj48c3BhbiBzdHlsZT0iIiBjbGFzcz0ibm9kZUxhYmVsIG1hcmtkb3duLW5vZGUtbGFiZWwiPjxwPsKraW50ZXJmYWNlwrs8L3A+PC9zcGFuPjwvZGl2PjwvZm9yZWlnbk9iamVjdD48L2c+PC9nPjxnIHRyYW5zZm9ybT0idHJhbnNsYXRlKC04MS43MDYyNTMwNTE3NTc4MSwgLTM5KSIgY2xhc3M9ImxhYmVsLWdyb3VwIHRleHQiPjxnIHRyYW5zZm9ybT0idHJhbnNsYXRlKDAsLTEyKSIgc3R5bGU9ImZvbnQtd2VpZ2h0OiBib2xkZXIiIGNsYXNzPSJsYWJlbCI+PGZvcmVpZ25PYmplY3QgaGVpZ2h0PSIyNCIgd2lkdGg9IjE2My40MTI1MDYxMDM1MTU2MiI+PGRpdiBzdHlsZT0iZGlzcGxheTogdGFibGUtY2VsbDsgd2hpdGUtc3BhY2U6IG5vd3JhcDsgbGluZS1oZWlnaHQ6IDEuNTsgbWF4LXdpZHRoOiAyMDhweDsgdGV4dC1hbGlnbjogY2VudGVyOyIgeG1sbnM9Imh0dHA6Ly93d3cudzMub3JnLzE5OTkveGh0bWwiPjxzcGFuIHN0eWxlPSIiIGNsYXNzPSJub2RlTGFiZWwgbWFya2Rvd24tbm9kZS1sYWJlbCI+PHA+QWR2YW5jZWRNZWRpYVBsYXllcjwvcD48L3NwYW4+PC9kaXY+PC9mb3JlaWduT2JqZWN0PjwvZz48L2c+PGcgdHJhbnNmb3JtPSJ0cmFuc2xhdGUoLTEzNS42OTY4ODQxNTUyNzM0NCwgOSkiIGNsYXNzPSJtZW1iZXJzLWdyb3VwIHRleHQiPjwvZz48ZyB0cmFuc2Zvcm09InRyYW5zbGF0ZSgtMTM1LjY5Njg4NDE1NTI3MzQ0LCAzOSkiIGNsYXNzPSJtZXRob2RzLWdyb3VwIHRleHQiPjxnIHRyYW5zZm9ybT0idHJhbnNsYXRlKDAsLTEyKSIgc3R5bGU9IiIgY2xhc3M9ImxhYmVsIj48Zm9yZWlnbk9iamVjdCBoZWlnaHQ9IjI0IiB3aWR0aD0iMTgzLjA3NDk5Njk0ODI0MjIiPjxkaXYgc3R5bGU9ImRpc3BsYXk6IHRhYmxlLWNlbGw7IHdoaXRlLXNwYWNlOiBub3dyYXA7IGxpbmUtaGVpZ2h0OiAxLjU7IG1heC13aWR0aDogMjM3cHg7IHRleHQtYWxpZ246IGNlbnRlcjsiIHhtbG5zPSJodHRwOi8vd3d3LnczLm9yZy8xOTk5L3hodG1sIj48c3BhbiBzdHlsZT0iIiBjbGFzcz0ibm9kZUxhYmVsIG1hcmtkb3duLW5vZGUtbGFiZWwiPjxwPitwbGF5VmxjKFN0cmluZyBmaWxlTmFtZSk8L3A+PC9zcGFuPjwvZGl2PjwvZm9yZWlnbk9iamVjdD48L2c+PGcgdHJhbnNmb3JtPSJ0cmFuc2xhdGUoMCwxMikiIHN0eWxlPSIiIGNsYXNzPSJsYWJlbCI+PGZvcmVpZ25PYmplY3QgaGVpZ2h0PSIyNCIgd2lkdGg9IjE4OS42ODc1Ij48ZGl2IHN0eWxlPSJkaXNwbGF5OiB0YWJsZS1jZWxsOyB3aGl0ZS1zcGFjZTogbm93cmFwOyBsaW5lLWhlaWdodDogMS41OyBtYXgtd2lkdGg6IDI0OHB4OyB0ZXh0LWFsaWduOiBjZW50ZXI7IiB4bWxucz0iaHR0cDovL3d3dy53My5vcmcvMTk5OS94aHRtbCI+PHNwYW4gc3R5bGU9IiIgY2xhc3M9Im5vZGVMYWJlbCBtYXJrZG93bi1ub2RlLWxhYmVsIj48cD4rcGxheU1wNChTdHJpbmcgZmlsZU5hbWUpPC9wPjwvc3Bhbj48L2Rpdj48L2ZvcmVpZ25PYmplY3Q+PC9nPjwvZz48ZyBzdHlsZT0iIiBjbGFzcz0iZGl2aWRlciI+PHBhdGggc3R5bGU9IiIgZmlsbD0ibm9uZSIgc3Ryb2tlLXdpZHRoPSIxLjMiIHN0cm9rZT0iIzk5OSIgZD0iTS0xNDcuNjk2ODg0MTU1MjczNDQgLTE1IEMtNjAuOTA2OTIyODE2NDg0OTY1IC0xNSwgMjUuODgzMDM4NTIyMzAzNTA4IC0xNSwgMTQ3LjY5Njg4NDE1NTI3MzQ0IC0xNSBNLTE0Ny42OTY4ODQxNTUyNzM0NCAtMTUgQy00My40NDMxMjM5MTA0NDcwMTQgLTE1LCA2MC44MTA2MzYzMzQzNzk0MSAtMTUsIDE0Ny42OTY4ODQxNTUyNzM0NCAtMTUiPjwvcGF0aD48L2c+PGcgc3R5bGU9IiIgY2xhc3M9ImRpdmlkZXIiPjxwYXRoIHN0eWxlPSIiIGZpbGw9Im5vbmUiIHN0cm9rZS13aWR0aD0iMS4zIiBzdHJva2U9IiM5OTkiIGQ9Ik0tMTQ3LjY5Njg4NDE1NTI3MzQ0IDkgQy04NS4zMjg0NDI0ODk3MTQ0OCA5LCAtMjIuOTYwMDAwODI0MTU1NTE0IDksIDE0Ny42OTY4ODQxNTUyNzM0NCA5IE0tMTQ3LjY5Njg4NDE1NTI3MzQ0IDkgQy03NS43OTQzMjU0MzU2NTYwMyA5LCAtMy44OTE3NjY3MTYwMzg2MzE2IDksIDE0Ny42OTY4ODQxNTUyNzM0NCA5Ij48L3BhdGg+PC9nPjwvZz48ZyB0cmFuc2Zvcm09InRyYW5zbGF0ZSgxMzIuMzU5Mzc1LCAxMjA2Ljk5OTk5ODA5MjY1MTQpIiBpZD0iY2xhc3NJZC1WbGNQbGF5ZXItNCIgY2xhc3M9Im5vZGUgZGVmYXVsdCI+PGcgY2xhc3M9ImJhc2ljIGxhYmVsLWNvbnRhaW5lciI+PHBhdGggc3R5bGU9IiIgZmlsbD0iI2VlZSIgc3Ryb2tlLXdpZHRoPSIwIiBzdHJva2U9Im5vbmUiIGQ9Ik0tMTI0LjM1OTM3NSAtNzUgTDEyNC4zNTkzNzUgLTc1IEwxMjQuMzU5Mzc1IDc1IEwtMTI0LjM1OTM3NSA3NSI+PC9wYXRoPjxwYXRoIHN0eWxlPSIiIGZpbGw9Im5vbmUiIHN0cm9rZS13aWR0aD0iMS4zIiBzdHJva2U9IiM5OTkiIGQ9Ik0tMTI0LjM1OTM3NSAtNzUgQy00NS43NzAwNTgzNjI4NDA2NCAtNzUsIDMyLjgxOTI1ODI3NDMxODcxIC03NSwgMTI0LjM1OTM3NSAtNzUgTS0xMjQuMzU5Mzc1IC03NSBDLTYyLjU4OTA0MjgyNzY3NjA1IC03NSwgLTAuODE4NzEwNjU1MzUyMTA2MiAtNzUsIDEyNC4zNTkzNzUgLTc1IE0xMjQuMzU5Mzc1IC03NSBDMTI0LjM1OTM3NSAtMjMuODk2MDUwNjcyMTQzOTcsIDEyNC4zNTkzNzUgMjcuMjA3ODk4NjU1NzEyMDU3LCAxMjQuMzU5Mzc1IDc1IE0xMjQuMzU5Mzc1IC03NSBDMTI0LjM1OTM3NSAtMTUuMDEwMzk0MzA1OTc2NDA1LCAxMjQuMzU5Mzc1IDQ0Ljk3OTIxMTM4ODA0NzE5LCAxMjQuMzU5Mzc1IDc1IE0xMjQuMzU5Mzc1IDc1IEM1OC40MjE4OTAxOTI1MzI4NyA3NSwgLTcuNTE1NTk0NjE0OTM0MjU4IDc1LCAtMTI0LjM1OTM3NSA3NSBNMTI0LjM1OTM3NSA3NSBDNjUuOTk3MDMyNzczODE5MDQgNzUsIDcuNjM0NjkwNTQ3NjM4MDg3IDc1LCAtMTI0LjM1OTM3NSA3NSBNLTEyNC4zNTkzNzUgNzUgQy0xMjQuMzU5Mzc1IDIwLjU2NDA4NDA0MzM2MTU5NiwgLTEyNC4zNTkzNzUgLTMzLjg3MTgzMTkxMzI3NjgxLCAtMTI0LjM1OTM3NSAtNzUgTS0xMjQuMzU5Mzc1IDc1IEMtMTI0LjM1OTM3NSAxOS44Nzg3OTgzNDI2MDIzMTYsIC0xMjQuMzU5Mzc1IC0zNS4yNDI0MDMzMTQ3OTUzNywgLTEyNC4zNTkzNzUgLTc1Ij48L3BhdGg+PC9nPjxnIHRyYW5zZm9ybT0idHJhbnNsYXRlKDAsIC01MSkiIGNsYXNzPSJhbm5vdGF0aW9uLWdyb3VwIHRleHQiPjwvZz48ZyB0cmFuc2Zvcm09InRyYW5zbGF0ZSgtMzUuMDMxMjUsIC01MSkiIGNsYXNzPSJsYWJlbC1ncm91cCB0ZXh0Ij48ZyB0cmFuc2Zvcm09InRyYW5zbGF0ZSgwLC0xMikiIHN0eWxlPSJmb250LXdlaWdodDogYm9sZGVyIiBjbGFzcz0ibGFiZWwiPjxmb3JlaWduT2JqZWN0IGhlaWdodD0iMjQiIHdpZHRoPSI3MC4wNjI1Ij48ZGl2IHN0eWxlPSJkaXNwbGF5OiB0YWJsZS1jZWxsOyB3aGl0ZS1zcGFjZTogbm93cmFwOyBsaW5lLWhlaWdodDogMS41OyBtYXgtd2lkdGg6IDExNXB4OyB0ZXh0LWFsaWduOiBjZW50ZXI7IiB4bWxucz0iaHR0cDovL3d3dy53My5vcmcvMTk5OS94aHRtbCI+PHNwYW4gc3R5bGU9IiIgY2xhc3M9Im5vZGVMYWJlbCBtYXJrZG93bi1ub2RlLWxhYmVsIj48cD5WbGNQbGF5ZXI8L3A+PC9zcGFuPjwvZGl2PjwvZm9yZWlnbk9iamVjdD48L2c+PC9nPjxnIHRyYW5zZm9ybT0idHJhbnNsYXRlKC0xMTIuMzU5Mzc1LCAtMykiIGNsYXNzPSJtZW1iZXJzLWdyb3VwIHRleHQiPjwvZz48ZyB0cmFuc2Zvcm09InRyYW5zbGF0ZSgtMTEyLjM1OTM3NSwgMjcpIiBjbGFzcz0ibWV0aG9kcy1ncm91cCB0ZXh0Ij48ZyB0cmFuc2Zvcm09InRyYW5zbGF0ZSgwLC0xMikiIHN0eWxlPSIiIGNsYXNzPSJsYWJlbCI+PGZvcmVpZ25PYmplY3QgaGVpZ2h0PSIyNCIgd2lkdGg9IjE4My4wNzQ5OTY5NDgyNDIyIj48ZGl2IHN0eWxlPSJkaXNwbGF5OiB0YWJsZS1jZWxsOyB3aGl0ZS1zcGFjZTogbm93cmFwOyBsaW5lLWhlaWdodDogMS41OyBtYXgtd2lkdGg6IDIzN3B4OyB0ZXh0LWFsaWduOiBjZW50ZXI7IiB4bWxucz0iaHR0cDovL3d3dy53My5vcmcvMTk5OS94aHRtbCI+PHNwYW4gc3R5bGU9IiIgY2xhc3M9Im5vZGVMYWJlbCBtYXJrZG93bi1ub2RlLWxhYmVsIj48cD4rcGxheVZsYyhTdHJpbmcgZmlsZU5hbWUpPC9wPjwvc3Bhbj48L2Rpdj48L2ZvcmVpZ25PYmplY3Q+PC9nPjxnIHRyYW5zZm9ybT0idHJhbnNsYXRlKDAsMTIpIiBzdHlsZT0iIiBjbGFzcz0ibGFiZWwiPjxmb3JlaWduT2JqZWN0IGhlaWdodD0iMjQiIHdpZHRoPSIxODkuNjg3NSI+PGRpdiBzdHlsZT0iZGlzcGxheTogdGFibGUtY2VsbDsgd2hpdGUtc3BhY2U6IG5vd3JhcDsgbGluZS1oZWlnaHQ6IDEuNTsgbWF4LXdpZHRoOiAyNDhweDsgdGV4dC1hbGlnbjogY2VudGVyOyIgeG1sbnM9Imh0dHA6Ly93d3cudzMub3JnLzE5OTkveGh0bWwiPjxzcGFuIHN0eWxlPSIiIGNsYXNzPSJub2RlTGFiZWwgbWFya2Rvd24tbm9kZS1sYWJlbCI+PHA+K3BsYXlNcDQoU3RyaW5nIGZpbGVOYW1lKTwvcD48L3NwYW4+PC9kaXY+PC9mb3JlaWduT2JqZWN0PjwvZz48L2c+PGcgc3R5bGU9IiIgY2xhc3M9ImRpdmlkZXIiPjxwYXRoIHN0eWxlPSIiIGZpbGw9Im5vbmUiIHN0cm9rZS13aWR0aD0iMS4zIiBzdHJva2U9IiM5OTkiIGQ9Ik0tMTI0LjM1OTM3NSAtMjcgQy0zOS41NzAyMTc1NzEwNjgyMSAtMjcsIDQ1LjIxODkzOTg1Nzg2MzU3NSAtMjcsIDEyNC4zNTkzNzUgLTI3IE0tMTI0LjM1OTM3NSAtMjcgQy00NS4wMTIxMTMxMDA2MDIyMSAtMjcsIDM0LjMzNTE0ODc5ODc5NTU4NiAtMjcsIDEyNC4zNTkzNzUgLTI3Ij48L3BhdGg+PC9nPjxnIHN0eWxlPSIiIGNsYXNzPSJkaXZpZGVyIj48cGF0aCBzdHlsZT0iIiBmaWxsPSJub25lIiBzdHJva2Utd2lkdGg9IjEuMyIgc3Ryb2tlPSIjOTk5IiBkPSJNLTEyNC4zNTkzNzUgLTMgQy01NS4xNTQwNTMzMzE4MzYzNCAtMywgMTQuMDUxMjY4MzM2MzI3MzI1IC0zLCAxMjQuMzU5Mzc1IC0zIE0tMTI0LjM1OTM3NSAtMyBDLTMwLjE0MTQ2MTU5ODgyMjAwNSAtMywgNjQuMDc2NDUxODAyMzU1OTkgLTMsIDEyNC4zNTkzNzUgLTMiPjwvcGF0aD48L2c+PC9nPjxnIHRyYW5zZm9ybT0idHJhbnNsYXRlKDQzMy4wMTg3NTMwNTE3NTc4LCAxMjA2Ljk5OTk5ODA5MjY1MTQpIiBpZD0iY2xhc3NJZC1NcDRQbGF5ZXItNSIgY2xhc3M9Im5vZGUgZGVmYXVsdCI+PGcgY2xhc3M9ImJhc2ljIGxhYmVsLWNvbnRhaW5lciI+PHBhdGggc3R5bGU9IiIgZmlsbD0iI2VlZSIgc3Ryb2tlLXdpZHRoPSIwIiBzdHJva2U9Im5vbmUiIGQ9Ik0tMTI2LjMwMDAwMzA1MTc1NzgxIC03NSBMMTI2LjMwMDAwMzA1MTc1NzgxIC03NSBMMTI2LjMwMDAwMzA1MTc1NzgxIDc1IEwtMTI2LjMwMDAwMzA1MTc1NzgxIDc1Ij48L3BhdGg+PHBhdGggc3R5bGU9IiIgZmlsbD0ibm9uZSIgc3Ryb2tlLXdpZHRoPSIxLjMiIHN0cm9rZT0iIzk5OSIgZD0iTS0xMjYuMzAwMDAzMDUxNzU3ODEgLTc1IEMtNjMuMjAzODY2MTA4NzQyMDEgLTc1LCAtMC4xMDc3MjkxNjU3MjYyMTIyNyAtNzUsIDEyNi4zMDAwMDMwNTE3NTc4MSAtNzUgTS0xMjYuMzAwMDAzMDUxNzU3ODEgLTc1IEMtNjAuMjM2OTY2MzQ5Mjk1MzYgLTc1LCA1LjgyNjA3MDM1MzE2NzA5NyAtNzUsIDEyNi4zMDAwMDMwNTE3NTc4MSAtNzUgTTEyNi4zMDAwMDMwNTE3NTc4MSAtNzUgQzEyNi4zMDAwMDMwNTE3NTc4MSAtNDIuODk4Mzc1OTUxOTA2MDgsIDEyNi4zMDAwMDMwNTE3NTc4MSAtMTAuNzk2NzUxOTAzODEyMTY1LCAxMjYuMzAwMDAzMDUxNzU3ODEgNzUgTTEyNi4zMDAwMDMwNTE3NTc4MSAtNzUgQzEyNi4zMDAwMDMwNTE3NTc4MSAtMjIuOTg2MTQ3MTkxMzQ5NTMsIDEyNi4zMDAwMDMwNTE3NTc4MSAyOS4wMjc3MDU2MTczMDA5NCwgMTI2LjMwMDAwMzA1MTc1NzgxIDc1IE0xMjYuMzAwMDAzMDUxNzU3ODEgNzUgQzU1LjgyMDYyMzE2MDg1MjU5IDc1LCAtMTQuNjU4NzU2NzMwMDUyNjMgNzUsIC0xMjYuMzAwMDAzMDUxNzU3ODEgNzUgTTEyNi4zMDAwMDMwNTE3NTc4MSA3NSBDMzAuNzA1MDYxMjM4NTUxMjI0IDc1LCAtNjQuODg5ODgwNTc0NjU1MzYgNzUsIC0xMjYuMzAwMDAzMDUxNzU3ODEgNzUgTS0xMjYuMzAwMDAzMDUxNzU3ODEgNzUgQy0xMjYuMzAwMDAzMDUxNzU3ODEgMzAuNzMyNTg3MTk5NTAyMTcsIC0xMjYuMzAwMDAzMDUxNzU3ODEgLTEzLjUzNDgyNTYwMDk5NTY2LCAtMTI2LjMwMDAwMzA1MTc1NzgxIC03NSBNLTEyNi4zMDAwMDMwNTE3NTc4MSA3NSBDLTEyNi4zMDAwMDMwNTE3NTc4MSAzMi4zOTI0NDY3MDA0NTQxNCwgLTEyNi4zMDAwMDMwNTE3NTc4MSAtMTAuMjE1MTA2NTk5MDkxNzI2LCAtMTI2LjMwMDAwMzA1MTc1NzgxIC03NSI+PC9wYXRoPjwvZz48ZyB0cmFuc2Zvcm09InRyYW5zbGF0ZSgwLCAtNTEpIiBjbGFzcz0iYW5ub3RhdGlvbi1ncm91cCB0ZXh0Ij48L2c+PGcgdHJhbnNmb3JtPSJ0cmFuc2xhdGUoLTM4LjkxMjUwMjI4ODgxODM2LCAtNTEpIiBjbGFzcz0ibGFiZWwtZ3JvdXAgdGV4dCI+PGcgdHJhbnNmb3JtPSJ0cmFuc2xhdGUoMCwtMTIpIiBzdHlsZT0iZm9udC13ZWlnaHQ6IGJvbGRlciIgY2xhc3M9ImxhYmVsIj48Zm9yZWlnbk9iamVjdCBoZWlnaHQ9IjI0IiB3aWR0aD0iNzcuODI1MDA0NTc3NjM2NzIiPjxkaXYgc3R5bGU9ImRpc3BsYXk6IHRhYmxlLWNlbGw7IHdoaXRlLXNwYWNlOiBub3dyYXA7IGxpbmUtaGVpZ2h0OiAxLjU7IG1heC13aWR0aDogMTI2cHg7IHRleHQtYWxpZ246IGNlbnRlcjsiIHhtbG5zPSJodHRwOi8vd3d3LnczLm9yZy8xOTk5L3hodG1sIj48c3BhbiBzdHlsZT0iIiBjbGFzcz0ibm9kZUxhYmVsIG1hcmtkb3duLW5vZGUtbGFiZWwiPjxwPk1wNFBsYXllcjwvcD48L3NwYW4+PC9kaXY+PC9mb3JlaWduT2JqZWN0PjwvZz48L2c+PGcgdHJhbnNmb3JtPSJ0cmFuc2xhdGUoLTExNC4zMDAwMDMwNTE3NTc4MSwgLTMpIiBjbGFzcz0ibWVtYmVycy1ncm91cCB0ZXh0Ij48L2c+PGcgdHJhbnNmb3JtPSJ0cmFuc2xhdGUoLTExNC4zMDAwMDMwNTE3NTc4MSwgMjcpIiBjbGFzcz0ibWV0aG9kcy1ncm91cCB0ZXh0Ij48ZyB0cmFuc2Zvcm09InRyYW5zbGF0ZSgwLC0xMikiIHN0eWxlPSIiIGNsYXNzPSJsYWJlbCI+PGZvcmVpZ25PYmplY3QgaGVpZ2h0PSIyNCIgd2lkdGg9IjE4My4wNzQ5OTY5NDgyNDIyIj48ZGl2IHN0eWxlPSJkaXNwbGF5OiB0YWJsZS1jZWxsOyB3aGl0ZS1zcGFjZTogbm93cmFwOyBsaW5lLWhlaWdodDogMS41OyBtYXgtd2lkdGg6IDIzN3B4OyB0ZXh0LWFsaWduOiBjZW50ZXI7IiB4bWxucz0iaHR0cDovL3d3dy53My5vcmcvMTk5OS94aHRtbCI+PHNwYW4gc3R5bGU9IiIgY2xhc3M9Im5vZGVMYWJlbCBtYXJrZG93bi1ub2RlLWxhYmVsIj48cD4rcGxheVZsYyhTdHJpbmcgZmlsZU5hbWUpPC9wPjwvc3Bhbj48L2Rpdj48L2ZvcmVpZ25PYmplY3Q+PC9nPjxnIHRyYW5zZm9ybT0idHJhbnNsYXRlKDAsMTIpIiBzdHlsZT0iIiBjbGFzcz0ibGFiZWwiPjxmb3JlaWduT2JqZWN0IGhlaWdodD0iMjQiIHdpZHRoPSIxODkuNjg3NSI+PGRpdiBzdHlsZT0iZGlzcGxheTogdGFibGUtY2VsbDsgd2hpdGUtc3BhY2U6IG5vd3JhcDsgbGluZS1oZWlnaHQ6IDEuNTsgbWF4LXdpZHRoOiAyNDhweDsgdGV4dC1hbGlnbjogY2VudGVyOyIgeG1sbnM9Imh0dHA6Ly93d3cudzMub3JnLzE5OTkveGh0bWwiPjxzcGFuIHN0eWxlPSIiIGNsYXNzPSJub2RlTGFiZWwgbWFya2Rvd24tbm9kZS1sYWJlbCI+PHA+K3BsYXlNcDQoU3RyaW5nIGZpbGVOYW1lKTwvcD48L3NwYW4+PC9kaXY+PC9mb3JlaWduT2JqZWN0PjwvZz48L2c+PGcgc3R5bGU9IiIgY2xhc3M9ImRpdmlkZXIiPjxwYXRoIHN0eWxlPSIiIGZpbGw9Im5vbmUiIHN0cm9rZS13aWR0aD0iMS4zIiBzdHJva2U9IiM5OTkiIGQ9Ik0tMTI2LjMwMDAwMzA1MTc1NzgxIC0yNyBDLTI2LjA4NTI1NjAzODE2OTAyIC0yNywgNzQuMTI5NDkwOTc1NDE5NzcgLTI3LCAxMjYuMzAwMDAzMDUxNzU3ODEgLTI3IE0tMTI2LjMwMDAwMzA1MTc1NzgxIC0yNyBDLTU3LjI0MDQ2NjQwMDEyMjIzIC0yNywgMTEuODE5MDcwMjUxNTEzMzUyIC0yNywgMTI2LjMwMDAwMzA1MTc1NzgxIC0yNyI+PC9wYXRoPjwvZz48ZyBzdHlsZT0iIiBjbGFzcz0iZGl2aWRlciI+PHBhdGggc3R5bGU9IiIgZmlsbD0ibm9uZSIgc3Ryb2tlLXdpZHRoPSIxLjMiIHN0cm9rZT0iIzk5OSIgZD0iTS0xMjYuMzAwMDAzMDUxNzU3ODEgLTMgQy02OS43MjcwOTUxNzk5MTI4MiAtMywgLTEzLjE1NDE4NzMwODA2NzgzMyAtMywgMTI2LjMwMDAwMzA1MTc1NzgxIC0zIE0tMTI2LjMwMDAwMzA1MTc1NzgxIC0zIEMtMjkuMTM4ODY2MTYzODUwODY0IC0zLCA2OC4wMjIyNzA3MjQwNTYwOSAtMywgMTI2LjMwMDAwMzA1MTc1NzgxIC0zIj48L3BhdGg+PC9nPjwvZz48ZyB0cmFuc2Zvcm09InRyYW5zbGF0ZSgyODIuNjg5MDY0MDI1ODc4OSwgNzEpIiBpZD0iY2xhc3NJZC1BZGFwdGVyRFAtNiIgY2xhc3M9Im5vZGUgZGVmYXVsdCI+PGcgY2xhc3M9ImJhc2ljIGxhYmVsLWNvbnRhaW5lciI+PHBhdGggc3R5bGU9IiIgZmlsbD0iI2VlZSIgc3Ryb2tlLXdpZHRoPSIwIiBzdHJva2U9Im5vbmUiIGQ9Ik0tMTAzLjA0Njg3NSAtNjMgTDEwMy4wNDY4NzUgLTYzIEwxMDMuMDQ2ODc1IDYzIEwtMTAzLjA0Njg3NSA2MyI+PC9wYXRoPjxwYXRoIHN0eWxlPSIiIGZpbGw9Im5vbmUiIHN0cm9rZS13aWR0aD0iMS4zIiBzdHJva2U9IiM5OTkiIGQ9Ik0tMTAzLjA0Njg3NSAtNjMgQy0yNi4xNTk2NDc5MTYyNzAzNiAtNjMsIDUwLjcyNzU3OTE2NzQ1OTI4IC02MywgMTAzLjA0Njg3NSAtNjMgTS0xMDMuMDQ2ODc1IC02MyBDLTMyLjM4NTY1OTgzNzE3NzkgLTYzLCAzOC4yNzU1NTUzMjU2NDQyMDYgLTYzLCAxMDMuMDQ2ODc1IC02MyBNMTAzLjA0Njg3NSAtNjMgQzEwMy4wNDY4NzUgLTMwLjU0ODY0MjA3NzM5NTYyNywgMTAzLjA0Njg3NSAxLjkwMjcxNTg0NTIwODc0NjMsIDEwMy4wNDY4NzUgNjMgTTEwMy4wNDY4NzUgLTYzIEMxMDMuMDQ2ODc1IC0yMC42NTQ0OTM2MjIzODI0MzIsIDEwMy4wNDY4NzUgMjEuNjkxMDEyNzU1MjM1MTM2LCAxMDMuMDQ2ODc1IDYzIE0xMDMuMDQ2ODc1IDYzIEMzMy41ODEzNTcyODA3MTE3ODUgNjMsIC0zNS44ODQxNjA0Mzg1NzY0MyA2MywgLTEwMy4wNDY4NzUgNjMgTTEwMy4wNDY4NzUgNjMgQzI1LjI5NDI1OTAyMDY0MDkzNiA2MywgLTUyLjQ1ODM1Njk1ODcxODEzIDYzLCAtMTAzLjA0Njg3NSA2MyBNLTEwMy4wNDY4NzUgNjMgQy0xMDMuMDQ2ODc1IDI0LjA3MTk5NTUyOTgyNDE3LCAtMTAzLjA0Njg3NSAtMTQuODU2MDA4OTQwMzUxNjU3LCAtMTAzLjA0Njg3NSAtNjMgTS0xMDMuMDQ2ODc1IDYzIEMtMTAzLjA0Njg3NSAxNi40NzgyOTk5NDU2NjE3NiwgLTEwMy4wNDY4NzUgLTMwLjA0MzQwMDEwODY3NjQ4LCAtMTAzLjA0Njg3NSAtNjMiPjwvcGF0aD48L2c+PGcgdHJhbnNmb3JtPSJ0cmFuc2xhdGUoMCwgLTM5KSIgY2xhc3M9ImFubm90YXRpb24tZ3JvdXAgdGV4dCI+PC9nPjxnIHRyYW5zZm9ybT0idHJhbnNsYXRlKC0zOS42NTYyNSwgLTM5KSIgY2xhc3M9ImxhYmVsLWdyb3VwIHRleHQiPjxnIHRyYW5zZm9ybT0idHJhbnNsYXRlKDAsLTEyKSIgc3R5bGU9ImZvbnQtd2VpZ2h0OiBib2xkZXIiIGNsYXNzPSJsYWJlbCI+PGZvcmVpZ25PYmplY3QgaGVpZ2h0PSIyNCIgd2lkdGg9Ijc5LjMxMjUiPjxkaXYgc3R5bGU9ImRpc3BsYXk6IHRhYmxlLWNlbGw7IHdoaXRlLXNwYWNlOiBub3dyYXA7IGxpbmUtaGVpZ2h0OiAxLjU7IG1heC13aWR0aDogMTI4cHg7IHRleHQtYWxpZ246IGNlbnRlcjsiIHhtbG5zPSJodHRwOi8vd3d3LnczLm9yZy8xOTk5L3hodG1sIj48c3BhbiBzdHlsZT0iIiBjbGFzcz0ibm9kZUxhYmVsIG1hcmtkb3duLW5vZGUtbGFiZWwiPjxwPkFkYXB0ZXJEUDwvcD48L3NwYW4+PC9kaXY+PC9mb3JlaWduT2JqZWN0PjwvZz48L2c+PGcgdHJhbnNmb3JtPSJ0cmFuc2xhdGUoLTkxLjA0Njg3NSwgOSkiIGNsYXNzPSJtZW1iZXJzLWdyb3VwIHRleHQiPjwvZz48ZyB0cmFuc2Zvcm09InRyYW5zbGF0ZSgtOTEuMDQ2ODc1LCAzOSkiIGNsYXNzPSJtZXRob2RzLWdyb3VwIHRleHQiPjxnIHRyYW5zZm9ybT0idHJhbnNsYXRlKDAsLTEyKSIgc3R5bGU9IiIgY2xhc3M9ImxhYmVsIj48Zm9yZWlnbk9iamVjdCBoZWlnaHQ9IjI0IiB3aWR0aD0iMTQyLjQzNzUiPjxkaXYgc3R5bGU9ImRpc3BsYXk6IHRhYmxlLWNlbGw7IHdoaXRlLXNwYWNlOiBub3dyYXA7IGxpbmUtaGVpZ2h0OiAxLjU7IG1heC13aWR0aDogMTk4cHg7IHRleHQtYWxpZ246IGNlbnRlcjsiIHhtbG5zPSJodHRwOi8vd3d3LnczLm9yZy8xOTk5L3hodG1sIj48c3BhbiBzdHlsZT0iIiBjbGFzcz0ibm9kZUxhYmVsIG1hcmtkb3duLW5vZGUtbGFiZWwiPjxwPittYWluKFN0cmluZ1tdIGFyZ3MpPC9wPjwvc3Bhbj48L2Rpdj48L2ZvcmVpZ25PYmplY3Q+PC9nPjwvZz48ZyBzdHlsZT0iIiBjbGFzcz0iZGl2aWRlciI+PHBhdGggc3R5bGU9IiIgZmlsbD0ibm9uZSIgc3Ryb2tlLXdpZHRoPSIxLjMiIHN0cm9rZT0iIzk5OSIgZD0iTS0xMDMuMDQ2ODc1IC0xNSBDLTM5LjI0MjQ4MjMwODM2MTM5NiAtMTUsIDI0LjU2MTkxMDM4MzI3NzIxIC0xNSwgMTAzLjA0Njg3NSAtMTUgTS0xMDMuMDQ2ODc1IC0xNSBDLTM5Ljk4MDU4MjY0MjkwODgxIC0xNSwgMjMuMDg1NzA5NzE0MTgyMzg2IC0xNSwgMTAzLjA0Njg3NSAtMTUiPjwvcGF0aD48L2c+PGcgc3R5bGU9IiIgY2xhc3M9ImRpdmlkZXIiPjxwYXRoIHN0eWxlPSIiIGZpbGw9Im5vbmUiIHN0cm9rZS13aWR0aD0iMS4zIiBzdHJva2U9IiM5OTkiIGQ9Ik0tMTAzLjA0Njg3NSA5IEMtMjMuNTM1MDQ3ODEwMzk0MTIgOSwgNTUuOTc2Nzc5Mzc5MjExNzYgOSwgMTAzLjA0Njg3NSA5IE0tMTAzLjA0Njg3NSA5IEMtMjguMDYxMDQ4MTM5NjcwMjkgOSwgNDYuOTI0Nzc4NzIwNjU5NDIgOSwgMTAzLjA0Njg3NSA5Ij48L3BhdGg+PC9nPjwvZz48L2c+PC9nPjwvZz48L3N2Zz4=;" vertex="1" parent="1">
                        <mxGeometry x="90" y="-360" width="599.6031494140625" height="1290" as="geometry"/>
                    </mxCell>
                </UserObject>
            </root>
        </mxGraphModel>
    </diagram>
</mxfile>